<svg width="50" height="50" viewBox="0 0 50 50" fill="none" xmlns="http://www.w3.org/2000/svg">
<path d="M25 50C11.2148 50 0 38.7852 0 25C0 11.2148 11.2148 0 25 0C38.7852 0 50 11.2148 50 25C50 38.7852 38.7852 50 25 50ZM25 1.69545C12.1507 1.69545 1.69545 12.1496 1.69545 25C1.69545 37.8493 12.1507 48.3045 25 48.3045C37.8515 48.3045 48.3045 37.8493 48.3045 25C48.3045 12.1496 37.8515 1.69545 25 1.69545Z" fill="white"/>
<path d="M21.8611 33.7779C21.6441 33.7779 21.4271 33.6954 21.2621 33.5292C20.9309 33.1992 20.9309 32.6611 21.2621 32.33L28.9436 24.6394L21.2621 16.95C20.932 16.6188 20.932 16.0808 21.2621 15.7507C21.5932 15.4195 22.1301 15.4195 22.4613 15.7507L30.7408 24.0392C31.0719 24.3704 31.0719 24.9073 30.7408 25.2385L22.4613 33.527C22.2951 33.6954 22.0781 33.7779 21.8611 33.7779Z" fill="white"/>
</svg>
