<svg width="110" height="50" viewBox="0 0 110 50" fill="none" xmlns="http://www.w3.org/2000/svg">
<path d="M36.1457 0H13.8543C11.9971 0 10.4771 1.51857 10.4771 3.37714V46.6214C10.4771 48.48 11.9971 50 13.8543 50H36.1457C38.0028 50 39.5228 48.4829 39.5228 46.6229V3.37714C39.5228 1.51857 38.0028 0 36.1457 0ZM21.4343 2.43429H28.5657C28.7914 2.43429 28.9743 2.61714 28.9743 2.84429C28.9743 3.07 28.7914 3.25286 28.5657 3.25286H21.4343C21.2085 3.25286 21.0257 3.07 21.0257 2.84429C21.0257 2.61714 21.2085 2.43429 21.4343 2.43429ZM25 48.3114C24.0671 48.3114 23.3114 47.5557 23.3114 46.6214C23.3114 45.6871 24.0671 44.9329 25 44.9329C25.9328 44.9329 26.6885 45.6871 26.6885 46.6214C26.6885 47.5557 25.9328 48.3114 25 48.3114ZM37.1728 43.75H12.8271V5.35571H37.1728V43.75Z" fill="white"/>
<path d="M85 32.1428L78.8143 26.7285L61.1285 41.8892C61.7714 42.4857 62.6393 42.8571 63.5964 42.8571H106.404C107.357 42.8571 108.221 42.4857 108.861 41.8892L91.1857 26.7285L85 32.1428Z" fill="white"/>
<path d="M108.871 8.11068C108.229 7.51068 107.364 7.14282 106.404 7.14282H63.5964C62.6428 7.14282 61.7785 7.51425 61.1357 8.11782L85 28.5714L108.871 8.11068Z" fill="white"/>
<path d="M60 10.2787V39.9501L77.2607 25.2823L60 10.2787Z" fill="white"/>
<path d="M92.7393 25.2821L110 39.95V10.2678L92.7393 25.2821Z" fill="white"/>
</svg>
