<svg width="280" height="70" viewBox="0 0 280 70" fill="none" xmlns="http://www.w3.org/2000/svg">
<circle cx="245" cy="35" r="33.5" fill="#C6EEFF" stroke="black" stroke-width="3"/>
<g clip-path="url(#clip0)">
<path d="M233.199 18.6299H252.499V21.4992H233.199V18.6299Z" fill="#FC9E51"/>
<path d="M241.726 15.2379H249.749V28.7408H241.726V15.2379Z" fill="#F4D553"/>
<path d="M241.726 15.2379H244.615V28.7408H241.726V15.2379Z" fill="#FC9E51"/>
<path d="M253.09 29.688V33.191H238.386V29.688C238.386 27.9882 239.764 26.6108 241.464 26.6108H250.011C251.711 26.6108 253.09 27.9882 253.09 29.688Z" fill="#FC9E51"/>
<path d="M253.09 29.688V33.191H242.216V29.688C242.216 27.9882 243.593 26.6108 245.293 26.6108H250.011C251.711 26.6108 253.09 27.9882 253.09 29.688Z" fill="#F4D553"/>
<path d="M264.502 49.9092C264.502 39.546 256.101 31.1449 245.738 31.1449C235.374 31.1449 226.974 39.546 226.974 49.9092C226.974 60.272 235.375 59.8142 245.738 59.8142C256.101 59.8142 264.502 60.272 264.502 49.9092Z" fill="#BDA4E0"/>
<path d="M243.868 59.8161C234.383 59.8304 226.974 59.641 226.974 49.9092C226.974 39.546 235.374 31.1449 245.737 31.1449C239.95 31.1449 235.257 39.546 235.257 49.9092C235.257 59.1296 238.973 59.7834 243.868 59.8161Z" fill="#8E66B5"/>
<path d="M269.916 20.0647C269.916 22.2652 268.132 24.0479 265.932 24.0479C265.843 24.0479 265.755 24.0448 265.668 24.039C265.777 24.4012 265.836 24.7869 265.836 25.1854C265.836 26.4748 265.222 27.6219 264.271 28.3497C263.6 28.8631 262.761 29.1686 261.851 29.1686C259.651 29.1686 257.868 27.3847 257.868 25.1854V14.9448C257.868 12.7447 259.651 10.9604 261.851 10.9604C262.479 10.9604 263.074 11.1059 263.601 11.3651C264.925 12.0127 265.836 13.3723 265.836 14.9448C265.836 15.3433 265.777 15.7278 265.668 16.0904C265.755 16.0842 265.843 16.0811 265.932 16.0811C268.132 16.0811 269.916 17.8642 269.916 20.0647Z" fill="#CDCFE0"/>
<path d="M237.823 20.0647C237.823 23.8936 235.284 27.1305 231.798 28.1834C231.021 28.4187 230.197 28.5449 229.343 28.5449C224.658 28.5449 220.862 24.7476 220.862 20.0647C220.862 15.3814 224.658 11.5841 229.343 11.5841C230.197 11.5841 231.021 11.7102 231.798 11.9455C235.284 12.9989 237.823 16.2354 237.823 20.0647Z" fill="#2D9E7B"/>
<path d="M237.823 20.0647C237.823 23.8936 235.284 27.1305 231.798 28.1835C228.311 27.1305 225.774 23.8936 225.774 20.0647C225.774 16.2354 228.311 12.9989 231.798 11.9456C235.284 12.9989 237.823 16.2354 237.823 20.0647Z" fill="#72D6B7"/>
<path d="M264.271 28.3497C263.6 28.8631 262.761 29.1686 261.851 29.1686C259.651 29.1686 257.868 27.3847 257.868 25.1854V14.9448C257.868 12.7447 259.651 10.9604 261.851 10.9604C262.479 10.9604 263.074 11.1059 263.601 11.3651L263.602 11.3662C259.61 10.476 257.131 17.6521 261.567 19.608C261.567 19.608 256.932 25.6085 264.271 28.3497Z" fill="#ABAEC4"/>
<path d="M260.877 38.7958C260.533 39.0276 260.443 39.4943 260.675 39.838C262.688 42.8168 263.751 46.299 263.751 49.9092C263.751 52.8144 263.067 54.9092 261.662 56.3124C258.883 59.0864 253.377 59.0775 247.002 59.0648C246.166 59.0633 245.309 59.0633 244.473 59.0648C238.098 59.0768 232.593 59.0868 229.814 56.3124C228.408 54.9088 227.724 52.8144 227.724 49.9092C227.724 39.9765 235.805 31.8955 245.738 31.8955C250.549 31.8955 255.073 33.7693 258.475 37.1716C258.768 37.4647 259.244 37.4647 259.537 37.1716C259.83 36.8785 259.83 36.4029 259.537 36.1098C257.861 34.4342 255.934 33.102 253.841 32.1458V29.6881C253.841 27.743 252.381 26.133 250.5 25.8923V22.2501H252.5C252.915 22.2501 253.251 21.9138 253.251 21.4991V18.6302C253.251 18.2156 252.915 17.8793 252.5 17.8793H250.5V15.2379C250.5 14.8233 250.164 14.4873 249.749 14.4873H241.726C241.311 14.4873 240.975 14.8233 240.975 15.2379V17.8793H238.312C237.327 13.8405 233.68 10.8331 229.342 10.8331C224.252 10.8331 220.111 14.9745 220.111 20.0647C220.111 21.4752 220.421 22.8298 221.033 24.0903C221.214 24.4637 221.663 24.6191 222.036 24.4382C222.41 24.2569 222.565 23.808 222.384 23.435C221.872 22.3801 221.613 21.2461 221.613 20.0647C221.613 15.8026 225.08 12.3351 229.342 12.3351C233.604 12.3351 237.072 15.8026 237.072 20.0647C237.072 24.3268 233.604 27.7943 229.342 27.7943C227.263 27.7943 225.312 26.98 223.848 25.5016C223.557 25.2069 223.081 25.2046 222.786 25.4962C222.492 25.7878 222.489 26.2634 222.781 26.5581C224.528 28.3235 226.859 29.2958 229.342 29.2958C233.68 29.2958 237.327 26.2885 238.312 22.2497H240.975V25.892C239.095 26.133 237.636 27.743 237.636 29.6881V32.157C230.908 35.24 226.223 42.0373 226.223 49.9089C226.223 53.2333 227.05 55.6756 228.753 57.375C231.973 60.5891 237.766 60.5795 244.476 60.5664C245.31 60.5648 246.165 60.5648 247 60.5664C247.41 60.5671 247.816 60.5679 248.219 60.5679C254.407 60.5679 259.699 60.3928 262.723 57.375C264.425 55.6756 265.252 53.2333 265.252 49.9089C265.252 45.9982 264.1 42.2252 261.919 38.9972C261.687 38.6539 261.221 38.5636 260.877 38.7958ZM251.749 19.3808V20.7481H250.5V19.3808H251.749ZM248.998 15.9889V25.8599H242.477V15.9889H248.998ZM238.548 20.7481C238.565 20.5225 238.573 20.2946 238.573 20.0647C238.573 19.8348 238.565 19.6068 238.548 19.3808H240.975V20.7481H238.548ZM239.137 29.6881C239.137 28.4052 240.181 27.3615 241.464 27.3615H250.011C251.295 27.3615 252.339 28.4052 252.339 29.6881V31.5337C250.249 30.7847 248.023 30.3939 245.738 30.3939C243.422 30.3939 241.2 30.8005 239.137 31.5441V29.6881Z" fill="black"/>
<path d="M255.003 19.3808C255.107 19.3808 255.213 19.3592 255.314 19.3137L262.162 16.2037C262.54 16.0321 262.707 15.5869 262.535 15.2093C262.364 14.8321 261.919 14.6647 261.541 14.8364L254.693 17.9463C254.315 18.118 254.148 18.5627 254.319 18.9403C254.445 19.2172 254.718 19.3808 255.003 19.3808Z" fill="black"/>
<path d="M254.693 22.1829L261.541 25.2929C261.642 25.3388 261.748 25.3604 261.851 25.3604C262.137 25.3604 262.41 25.1965 262.535 24.9199C262.707 24.5423 262.54 24.0972 262.162 23.9256L255.314 20.8156C254.936 20.644 254.491 20.8114 254.319 21.189C254.148 21.5662 254.315 22.0113 254.693 22.1829Z" fill="black"/>
<path d="M270.667 20.0647C270.667 17.6691 268.879 15.6834 266.567 15.3722C266.58 15.2302 266.586 15.0875 266.586 14.9444C266.586 12.3339 264.462 10.2098 261.852 10.2098C259.241 10.2098 257.117 12.3339 257.117 14.9444C257.117 15.359 257.453 15.6954 257.868 15.6954C258.282 15.6954 258.619 15.359 258.619 14.9444C258.619 13.1621 260.069 11.7114 261.852 11.7114C263.634 11.7114 265.085 13.1621 265.085 14.9444C265.085 15.2599 265.039 15.5727 264.948 15.8747C264.878 16.1104 264.927 16.3657 265.08 16.5582C265.233 16.7507 265.471 16.8556 265.716 16.8398C265.801 16.834 265.869 16.8317 265.932 16.8317C267.715 16.8317 269.165 18.2819 269.165 20.0647C269.165 21.847 267.715 23.2977 265.932 23.2977C265.869 23.2977 265.801 23.295 265.716 23.2896C265.471 23.2738 265.233 23.3787 265.08 23.5712C264.927 23.7636 264.878 24.019 264.948 24.2546C265.039 24.5563 265.085 24.8695 265.085 25.185C265.085 26.9677 263.634 28.418 261.852 28.418C260.069 28.418 258.619 26.9677 258.619 25.185C258.619 24.7703 258.282 24.434 257.868 24.434C257.453 24.434 257.117 24.7703 257.117 25.185C257.117 27.7954 259.241 29.9195 261.852 29.9195C264.462 29.9195 266.586 27.7954 266.586 25.185C266.586 25.0415 266.58 24.8988 266.567 24.7568C268.879 24.4456 270.667 22.4599 270.667 20.0647Z" fill="black"/>
</g>
<circle cx="105" cy="35" r="30" fill="white"/>
<g clip-path="url(#clip1)">
<path d="M124.33 39.4818C124.33 41.6597 115.654 43.698 104.951 43.698C94.248 43.698 85.5713 41.6597 85.5713 39.4818C85.5713 37.3043 94.248 35.5391 104.951 35.5391C115.654 35.5391 124.33 37.3043 124.33 39.4818Z" fill="#525468"/>
<path d="M87.3932 39.4818C87.3932 37.3663 95.5817 35.6402 105.862 35.5433C105.56 35.5405 105.256 35.5391 104.951 35.5391C94.248 35.5391 85.5713 37.3043 85.5713 39.4818C85.5713 41.6597 94.248 43.698 104.951 43.698C105.256 43.698 105.56 43.6963 105.862 43.6931C95.5817 43.5816 87.3932 41.5974 87.3932 39.4818Z" fill="#3E4151"/>
<path d="M124.33 23.9368C124.33 17.5288 115.654 12.3346 104.951 12.3346C94.248 12.3346 85.5713 17.5288 85.5713 23.9368C85.5713 30.3444 94.248 35.539 104.951 35.539C115.654 35.539 124.33 30.3444 124.33 23.9368Z" fill="#E4E3E1"/>
<path d="M120.833 25.5834C120.833 20.3322 113.722 16.0754 104.951 16.0754C96.1798 16.0754 89.0694 20.3322 89.0694 25.5834C89.0694 30.8347 96.1798 35.0914 104.951 35.0914C113.722 35.0914 120.833 30.8347 120.833 25.5834Z" fill="#D1D0CF"/>
<path d="M87.3932 23.9368C87.3932 17.7118 95.5817 12.6326 105.862 12.3474C105.56 12.3392 105.256 12.3346 104.951 12.3346C94.248 12.3346 85.5713 17.5288 85.5713 23.9368C85.5713 30.3444 94.248 35.539 104.951 35.539C105.256 35.539 105.56 35.5341 105.862 35.5259C95.5817 35.241 87.3932 30.1614 87.3932 23.9368Z" fill="#D1D0CF"/>
<path d="M90.8912 25.5834C90.8912 20.5152 97.5146 16.3742 105.862 16.0915C105.56 16.0811 105.257 16.0754 104.951 16.0754C96.1798 16.0754 89.0694 20.3322 89.0694 25.5834C89.0694 30.8347 96.1798 35.0914 104.951 35.0914C105.257 35.0914 105.56 35.0858 105.862 35.0754C97.5146 34.7927 90.8912 30.6517 90.8912 25.5834Z" fill="#AFAFAF"/>
<path d="M118.256 42.5306C117.84 41.5209 116.846 40.8098 115.686 40.8098C115.681 40.8098 115.677 40.8102 115.673 40.8102C115.878 38.7349 113.721 37.1786 111.811 38.0726C111.669 38.1396 111.497 38.0886 111.415 37.9541C109.99 35.6184 106.535 35.8111 105.38 38.2902C105.305 38.45 105.121 38.5248 104.953 38.4703C104.532 38.3329 104.08 38.3058 103.647 38.3888C103.462 38.4247 103.276 38.329 103.205 38.1534C102.112 35.4536 98.153 35.8157 97.5762 38.6729C97.5424 38.8399 97.3733 38.9406 97.2113 38.8876C95.1876 38.2236 93.1254 39.788 93.1891 41.8968C93.1955 42.1144 93.0763 42.3166 92.8762 42.4017C92.7081 42.4729 92.5507 42.5633 92.4051 42.6691C99.9318 43.9715 111.072 43.9117 118.256 42.5306Z" fill="#F6E1C6"/>
<path d="M94.4573 42.9471C94.6005 42.8378 94.756 42.7438 94.9223 42.669C95.1203 42.5797 95.2356 42.3749 95.2242 42.1578C95.1153 40.0511 97.1433 38.4421 99.1809 39.0627C99.3436 39.1122 99.5109 39.0079 99.5408 38.8402C99.7627 37.6051 100.621 36.82 101.619 36.5388C100.044 35.8961 97.98 36.6712 97.5759 38.6728C97.5424 38.8398 97.3729 38.9406 97.2109 38.8875C95.1872 38.2235 93.1254 39.788 93.1891 41.8968C93.1955 42.114 93.0759 42.3165 92.8758 42.4013C92.7081 42.4725 92.5504 42.5633 92.4051 42.669C93.7307 42.8983 92.9488 42.8018 94.4573 42.9471Z" fill="#E2C8AC"/>
<path d="M105.605 38.4254C106.035 38.3328 106.488 38.3503 106.912 38.4784C107.081 38.5294 107.263 38.4507 107.335 38.2894C107.753 37.3388 108.51 36.7114 109.369 36.4241C107.861 36.031 106.132 36.6748 105.38 38.2901C105.364 38.3243 105.342 38.3535 105.318 38.3791C105.402 38.4282 105.503 38.4471 105.605 38.4254Z" fill="#E2C8AC"/>
<path d="M104.951 43.4249C94.248 43.4249 85.5713 41.6597 85.5713 39.4822V51.4187C85.5713 53.5962 94.248 55.3615 104.951 55.3615C115.654 55.3615 124.33 53.5962 124.33 51.4187V39.4818C124.33 41.6597 115.654 43.4249 104.951 43.4249Z" fill="#E4E3E1"/>
<path d="M87.3932 41.1523C86.2254 40.6453 85.5713 40.0792 85.5713 39.4818V51.4187C85.5713 52.0158 86.2254 52.5819 87.3932 53.0892V41.1523Z" fill="#D1D0CF"/>
<path d="M104.951 46.7367C94.248 46.7367 85.5713 44.9715 85.5713 42.7939V48.2495C85.5713 50.4271 94.248 52.1923 104.951 52.1923C115.654 52.1923 124.33 50.4271 124.33 48.2495V42.7939C124.33 44.9715 115.654 46.7367 104.951 46.7367Z" fill="#FFC964"/>
<path d="M85.5713 48.2495C85.5713 48.8466 86.2254 49.4127 87.3932 49.9201V44.4645C86.2254 43.9571 85.5713 43.391 85.5713 42.7939V48.2495Z" fill="#F3A334"/>
<path d="M125.224 52.6854L124.33 51.3275C124.33 53.505 115.654 55.2706 104.951 55.2706C94.248 55.2706 85.5713 53.505 85.5713 51.3275L84.7628 52.8806C84.49 53.4036 84.6752 54.0512 85.1868 54.3449C93.1471 58.9168 118.456 58.6213 124.95 54.1217C125.39 53.8173 125.526 53.1358 125.224 52.6854Z" fill="#D1D0CF"/>
<path d="M86.7893 54.1783L87.4021 53.002C86.2286 52.4935 85.5713 51.926 85.5713 51.3271L84.7628 52.8802C84.4904 53.4036 84.6755 54.0512 85.1868 54.3449C85.6482 54.6098 86.1688 54.8583 86.7395 55.0908C86.6277 54.8039 86.637 54.4717 86.7893 54.1783Z" fill="#AFAFAF"/>
<path d="M84.881 39.4974V51.1755L84.1497 52.5804C83.7053 53.4335 84.0083 54.4756 84.8393 54.9527C93.0043 59.6424 118.612 59.3548 125.332 54.6985C126.076 54.1833 126.288 53.0739 125.786 52.323L125.006 51.1385C125.006 48.6882 125.006 41.9338 125.006 39.4974C125.006 36.4935 116.037 35.5016 112.969 35.2203C114.84 34.724 116.589 34.0533 118.147 33.223C121.849 31.2491 124.228 28.5158 124.845 25.5261C124.921 25.1566 124.683 24.7952 124.314 24.7194C123.944 24.6428 123.583 24.8806 123.507 25.2502C123.038 27.5221 121.334 29.6537 118.661 31.3449C120.514 29.6726 121.508 27.6901 121.508 25.5988C121.508 20.344 115.117 15.9854 106.641 15.4602C106.263 15.436 105.94 15.723 105.917 16.0997C105.893 16.4763 106.18 16.8003 106.556 16.8238C114.226 17.2992 120.142 21.1255 120.142 25.5988C120.142 27.8888 118.608 30.0681 115.823 31.7358C106.131 37.5378 89.7455 33.2913 89.7455 25.5988C89.7455 21.092 95.7408 17.2593 103.449 16.8171C103.826 16.7954 104.114 16.4724 104.092 16.0961C104.071 15.7191 103.748 15.4321 103.371 15.4531C90.2899 16.2033 84.4462 25.2242 91.2263 31.3445C88.012 29.3119 86.2474 26.6989 86.2474 23.9521C86.2474 17.9133 94.745 13.0331 104.944 13.0331C114.143 13.0331 122.095 17.046 123.441 22.3677C123.534 22.7334 123.906 22.9548 124.271 22.8623C124.637 22.77 124.858 22.3983 124.766 22.0327C123.236 15.9843 114.739 11.6666 104.944 11.6666C94.0518 11.6666 84.881 16.9908 84.881 23.9521C84.881 27.301 87.0151 30.4227 90.8895 32.7423C92.6554 33.7994 94.6912 34.634 96.9019 35.2218C93.9087 35.497 84.881 36.4836 84.881 39.4974ZM86.2474 41.3584C92.2267 44.9445 117.414 45.0926 123.64 41.3584V42.809C123.64 43.108 122.719 44.0718 118.511 44.9277C114.894 45.6637 110.076 46.0688 104.944 46.0688C92.8779 46.0688 86.2474 43.9273 86.2474 42.809V41.3584ZM86.2474 44.6707C92.3699 48.3429 117.541 48.329 123.64 44.6707V48.2649C123.64 48.5636 122.719 49.5274 118.511 50.3833C114.894 51.1192 110.076 51.5244 104.944 51.5244C93.0221 51.5244 86.2474 49.4138 86.2474 48.2649V44.6707ZM86.2474 50.1259C92.3592 53.7924 117.527 53.7931 123.64 50.1259V51.3428C123.64 51.6419 122.719 52.6053 118.511 53.4616C111.023 54.9851 98.8612 54.9844 91.3765 53.4616C87.1689 52.6053 86.2474 51.6419 86.2474 51.3428V50.1259ZM124.372 52.6602C124.372 52.6602 124.649 53.0814 124.649 53.0814C124.741 53.2181 124.69 53.4812 124.554 53.5756C118.354 57.8712 93.339 58.2589 85.5197 53.7678C85.3264 53.6567 85.2569 53.4125 85.3616 53.2113L85.6055 52.7428C90.2942 56.8903 119.662 57.1569 124.372 52.6602ZM123.64 39.4974C123.64 39.5907 123.55 39.7492 123.298 39.9485C122.75 40.3825 121.436 41.011 118.618 41.5934C118.11 40.7745 117.288 40.2067 116.345 40.0237C116.129 37.8817 113.909 36.4099 111.813 37.1636C111.621 36.8944 111.4 36.6548 111.158 36.4451C119.69 37.0358 123.64 38.6761 123.64 39.4974ZM104.944 36.2372C105.314 36.2372 105.683 36.2397 106.05 36.244C105.577 36.5897 105.179 37.0401 104.884 37.5773C104.509 37.4904 104.119 37.4691 103.736 37.5157C103.498 37.0148 103.163 36.5918 102.759 36.2625C103.479 36.2461 104.208 36.2372 104.944 36.2372ZM98.2385 38.6412C98.4831 37.4303 99.4376 36.9183 100.25 36.8428C101.064 36.7673 102.1 37.0949 102.564 38.2431C102.757 38.717 103.263 38.9904 103.769 38.8929C104.09 38.8309 104.424 38.8516 104.735 38.9531C105.232 39.1147 105.773 38.8822 105.992 38.4115C106.918 36.4238 109.683 36.2707 110.824 38.1427C111.088 38.5757 111.634 38.7394 112.094 38.5244C113.517 37.8575 115.14 39.0189 114.986 40.5759C114.967 40.7678 115.03 40.959 115.159 41.1017C115.289 41.2449 115.473 41.3264 115.665 41.3264C115.673 41.3264 115.68 41.326 115.687 41.326C116.222 41.3278 116.72 41.5304 117.097 41.8765C110.361 43.0005 100.764 43.0425 93.8314 42.0378C93.8567 41.9324 93.8681 41.8224 93.8649 41.7095C93.815 40.0685 95.4179 38.8534 96.9913 39.3696C97.2526 39.4554 97.5392 39.4255 97.777 39.287C98.0156 39.1482 98.1836 38.9128 98.2385 38.6412ZM97.8903 36.5078C97.4918 36.9037 97.186 37.3961 97.0055 37.9611C94.666 37.4705 92.4884 39.3023 92.4973 41.6525C92.4137 41.6921 92.3314 41.7355 92.251 41.7828C90.7641 41.5155 87.7766 40.8888 86.5896 39.9485C86.3375 39.7492 86.2474 39.5907 86.2474 39.4974C86.2474 39.1984 87.1689 38.2346 91.3765 37.3787C93.2628 36.9948 95.4763 36.7011 97.8903 36.5078Z" fill="black"/>
</g>
<g clip-path="url(#clip2)">
<path d="M105 1.03979C86.2439 1.03979 71.0398 16.2439 71.0398 35C71.0398 53.7561 86.2439 68.9602 105 68.9602C123.756 68.9602 138.96 53.7561 138.96 35C138.96 16.2439 123.756 1.03979 105 1.03979ZM77.1483 35C77.1483 25.5611 81.8448 17.2196 89.0279 12.1824L115.614 60.7554C112.343 62.105 108.759 62.8516 105 62.8516C89.6181 62.8516 77.1483 50.3819 77.1483 35ZM120.971 57.8181L94.3845 9.24506C97.6562 7.89496 101.241 7.14835 105 7.14835C120.382 7.14835 132.85 19.6181 132.85 35C132.85 44.4395 128.154 52.7809 120.971 57.8181Z" fill="#FF5A73"/>
<path d="M89.2635 11.1703C89.5519 11.2376 89.7975 11.424 89.9396 11.6835L116.527 60.2566C116.669 60.5156 116.694 60.8227 116.595 61.1015C116.497 61.3803 116.285 61.604 116.012 61.7167C112.515 63.1597 108.811 63.8914 105 63.8914C95.0868 63.8914 85.9785 58.8969 80.6342 50.5314C80.3255 50.0476 80.467 49.4046 80.9509 49.0953C81.4347 48.7867 82.0777 48.9282 82.3864 49.412C87.3467 57.1767 95.8003 61.8123 105 61.8123C108.146 61.8123 111.212 61.2756 114.134 60.215L110.467 53.5168L104.281 42.2135L96.7082 28.3803L88.6856 13.7231C82.0911 18.7876 78.1882 26.6558 78.1882 35C78.1882 38.795 78.9647 42.4613 80.4958 45.8974C80.7298 46.4218 80.4942 47.036 79.9698 47.2699C79.4453 47.5038 78.8306 47.2683 78.5967 46.7439C76.946 43.0397 76.1086 39.0882 76.1086 35C76.1086 25.5904 80.7148 16.7421 88.4309 11.3316C88.6728 11.1618 88.9756 11.103 89.2635 11.1703Z" fill="black"/>
<path d="M120.724 58.9433C120.436 58.8761 120.19 58.6897 120.048 58.4301L93.4607 9.85704C93.3192 9.59802 93.2941 9.29094 93.3929 9.01216C93.4912 8.73338 93.7032 8.50961 93.9761 8.39693C97.4726 6.9539 101.177 6.22224 104.988 6.22224C114.901 6.22224 124.009 11.2167 129.354 19.5822C129.662 20.0661 129.521 20.7091 129.037 21.0183C128.553 21.327 127.91 21.1855 127.601 20.7016C122.641 12.9369 114.187 8.30133 104.988 8.30133C101.842 8.30133 98.7757 8.83806 95.8538 9.8987L99.5207 16.5968L105.707 27.9002L113.28 41.7333L121.302 56.3906C127.897 51.3261 131.8 43.4578 131.8 35.1137C131.8 31.3187 131.023 27.6524 129.492 24.2162C129.258 23.6918 129.494 23.0776 130.018 22.8437C130.542 22.6098 131.157 22.8453 131.391 23.3698C133.042 27.074 133.879 31.0255 133.879 35.1137C133.879 44.5233 129.273 53.3715 121.557 58.7821C121.315 58.9519 121.012 59.0106 120.724 58.9433Z" fill="black"/>
<path d="M129.749 10.2512C123.138 3.64067 114.349 0 105 0C95.6513 0 86.8618 3.64067 80.2512 10.2512C73.6407 16.8618 70 25.6513 70 35C70 44.3487 73.6407 53.1382 80.2512 59.7488C86.8618 66.3593 95.6513 70 105 70C114.349 70 123.138 66.3593 129.749 59.7488C136.359 53.1382 140 44.3487 140 35C140 25.6513 136.359 16.8618 129.749 10.2512ZM128.279 58.2785C122.06 64.4965 113.793 67.9209 105 67.9209C96.2067 67.9209 87.9395 64.4965 81.7215 58.2785C75.5035 52.0605 72.0791 43.7933 72.0791 35C72.0791 26.2067 75.5035 17.9395 81.7215 11.7215C87.9395 5.50346 96.2067 2.07909 105 2.07909C113.793 2.07909 122.06 5.50346 128.279 11.7215C134.497 17.9395 137.921 26.2067 137.921 35C137.921 43.7933 134.497 52.0605 128.279 58.2785Z" fill="black"/>
</g>
<circle cx="35" cy="35" r="34.5" fill="black" stroke="black"/>
<path d="M68.5 35C68.5 53.5015 53.5015 68.5 35 68.5C16.4985 68.5 1.5 53.5015 1.5 35C1.5 16.4985 16.4985 1.5 35 1.5C53.5015 1.5 68.5 16.4985 68.5 35Z" fill="#9AF4EF" stroke="black"/>
<g opacity="0.3">
<path opacity="0.3" d="M55.1047 7.58521C40.0549 11.6032 28.9673 25.3243 28.9673 41.6406C28.9673 52.3538 33.7527 61.9435 41.2949 68.4087C57.0636 65.4553 69 51.6257 69 35C69 23.746 63.5287 13.7735 55.1047 7.58521Z" fill="#FFFFF4"/>
</g>
<path d="M21.2918 26.7342L21.2918 26.7342C21.9675 26.9074 22.355 27.0676 22.755 27.3277C23.1387 27.5773 23.5383 27.9203 24.197 28.4857C24.2667 28.5455 24.3393 28.6077 24.415 28.6727C24.8031 29.0053 25.2584 29.1472 25.7011 29.2114C26.0858 29.2672 26.4995 29.2683 26.8807 29.2694C26.9279 29.2695 26.9746 29.2696 27.0207 29.2698C27.905 29.2743 28.6426 29.3207 29.2361 29.8117C29.4434 29.9831 29.605 30.1694 29.7698 30.3768C29.8055 30.4217 29.8425 30.4692 29.8809 30.5184C30.0112 30.6857 30.1573 30.8732 30.3192 31.0455C30.7115 31.4628 31.2133 31.8154 32.0441 32.0335C32.0424 32.0521 32.0407 32.0712 32.0389 32.0907C32.0116 32.3868 31.9717 32.7822 31.9212 33.1823C31.8703 33.5852 31.81 33.9811 31.7432 34.2828C31.7259 34.3606 31.7092 34.428 31.6932 34.4849C31.5424 34.4663 31.3394 34.4367 31.0876 34.3967C30.5088 34.3047 29.6949 34.1611 28.7172 33.9803C26.7629 33.6188 24.167 33.111 21.5163 32.5759C18.8658 32.0408 16.1628 31.4789 13.9947 31.0095C11.8108 30.5367 10.205 30.165 9.72008 30.0086C8.72259 29.6868 7.84262 29.5874 6.63563 29.5028C6.37001 29.4842 6.08789 29.4663 5.7839 29.447C4.81043 29.3852 3.61265 29.3091 2.01421 29.1506C2.46601 26.5875 3.21196 24.1268 4.21165 21.7995C5.35609 22.201 6.62409 22.5032 8.1887 22.451C9.16434 22.4185 9.82446 22.4736 10.3431 22.616C10.8488 22.7549 11.2476 22.9845 11.6882 23.3491L11.6882 23.3492C11.7264 23.3807 11.764 23.4119 11.801 23.4425C12.4451 23.976 12.9219 24.371 13.3673 24.5833C13.906 24.8402 14.3868 24.8325 14.9966 24.6828C15.544 24.5484 15.9274 24.4816 16.2668 24.5452C16.5725 24.6025 16.9075 24.7809 17.3013 25.3059C17.6472 25.7672 18.0056 26.084 18.3842 26.293C18.764 26.5026 19.1376 26.5889 19.4906 26.6245C19.7515 26.6508 20.0211 26.65 20.2611 26.6492C20.3306 26.649 20.3975 26.6488 20.461 26.6493C20.7613 26.6514 21.0283 26.6666 21.2918 26.7342Z" fill="#36B294" stroke="black"/>
<g opacity="0.4">
<path opacity="0.4" d="M48.6355 41.6407C48.6355 49.1463 53.9431 55.4093 61.0089 56.8895C65.9923 50.9743 69 43.34 69 35C69 32.0727 68.6296 29.232 67.9339 26.5217C66.7413 26.2294 65.5016 26.0574 64.2188 26.0574C55.6124 26.0574 48.6355 33.0341 48.6355 41.6407Z" fill="#FFFFF4"/>
</g>
<path d="M57.1141 37.2914C57.0188 37.2914 56.9426 37.2145 56.9426 37.1205V29.8958C56.9426 29.8019 57.0189 29.725 57.1141 29.725C57.2094 29.725 57.2856 29.8019 57.2856 29.8958V37.1205C57.2856 37.2146 57.2095 37.2914 57.1141 37.2914Z" fill="#674447" stroke="black"/>
<path d="M57.1137 33.0082C59.1725 33.0082 60.8415 31.3392 60.8415 29.2804C60.8415 28.1929 60.3875 25.876 59.6338 23.8206C59.2583 22.7968 58.8211 21.8736 58.3522 21.216C57.8631 20.53 57.4377 20.2677 57.1137 20.2677V33.0082ZM57.1137 33.0082C55.0548 33.0082 53.3859 31.3392 53.3859 29.2804M57.1137 33.0082L53.3859 29.2804M53.3859 29.2804C53.3859 28.1929 53.8398 25.876 54.5936 23.8206M53.3859 29.2804L54.5936 23.8206M54.5936 23.8206C54.969 22.7968 55.4063 21.8735 55.8751 21.216M54.5936 23.8206L55.8751 21.216M55.8751 21.216C56.3643 20.53 56.7897 20.2677 57.1137 20.2677L55.8751 21.216Z" fill="#43AB5F" stroke="black"/>
<path d="M56.3266 20.6804C56.6277 20.3886 56.894 20.2677 57.1137 20.2677C57.4376 20.2677 57.863 20.5299 58.3522 21.216C58.821 21.8735 59.2583 22.7968 59.6337 23.8206C60.3875 25.876 60.8414 28.1929 60.8414 29.2804V29.2804C60.8414 30.824 59.9032 32.1484 58.566 32.7147C59.3481 31.9262 59.8315 30.8412 59.8315 29.6418C59.8315 28.4933 59.3792 26.2554 58.6676 24.315C58.3104 23.3409 57.8752 22.406 57.3753 21.7048C57.0843 21.2966 56.7343 20.9163 56.3266 20.6804Z" fill="#71BE63" stroke="black"/>
<g opacity="0.6">
<path opacity="0.6" d="M26.1669 17.8337L26.4536 17.9049L26.6542 17.6882C27.2298 17.0667 28.0404 16.6761 28.9456 16.6761C30.5058 16.6761 31.7996 17.8165 32.039 19.3092H23.6943C23.9174 18.4226 24.72 17.7661 25.6759 17.7661C25.8352 17.7661 25.9957 17.7912 26.1669 17.8337Z" fill="white" stroke="black"/>
</g>
<g opacity="0.6">
<path opacity="0.6" d="M23.392 9.13284C23.6078 8.39845 24.2868 7.86228 25.091 7.86228C25.2275 7.86228 25.3664 7.88379 25.5163 7.92108L25.8031 7.99239L26.0039 7.77555C26.5082 7.2309 27.218 6.88916 28.0103 6.88916C29.3548 6.88916 30.4735 7.85633 30.7086 9.13284H23.392Z" fill="white" stroke="black"/>
</g>
<g opacity="0.6">
<path opacity="0.6" d="M51.6967 11.0298L51.496 10.8131C51.1082 10.3944 50.5637 10.1327 49.9567 10.1327L51.6967 11.0298ZM51.6967 11.0298L51.9833 10.9587M51.6967 11.0298L51.9833 10.9587M51.9833 10.9587C52.099 10.9299 52.2021 10.9143 52.3014 10.9143C52.8554 10.9143 53.33 11.2548 53.5273 11.7379M51.9833 10.9587L53.5273 11.7379M53.5273 11.7379H47.9113M53.5273 11.7379H47.9113M47.9113 11.7379C48.1357 10.8167 48.9663 10.1328 49.9567 10.1327L47.9113 11.7379Z" fill="white" stroke="black"/>
</g>
<path d="M24.5652 31.218L24.5652 31.218C25.3805 31.5245 26.2012 31.169 26.7916 30.8614C26.9479 30.78 27.1002 30.6948 27.2417 30.6156L27.2493 30.6114C27.3902 30.5325 27.5189 30.4605 27.6416 30.3966C27.8986 30.2628 28.0672 30.1993 28.1766 30.1857C28.1932 30.1929 28.2384 30.2203 28.3201 30.3129C28.4246 30.4314 28.5223 30.577 28.6466 30.7622C28.6956 30.8352 28.7487 30.9144 28.8079 31.0004C29.1771 31.5364 29.7678 32.3125 30.8102 32.3125C31.334 32.3125 31.8027 32.2497 32.2033 32.1935L32.2483 32.1872C32.6413 32.132 32.9424 32.0897 33.2122 32.0965C33.4748 32.1031 33.6726 32.1567 33.8503 32.2797C34.035 32.4075 34.2433 32.6416 34.4641 33.0896C34.4644 33.0906 34.4689 33.1023 34.4801 33.1347C34.4929 33.1717 34.5122 33.2294 34.5352 33.2911C34.5818 33.4159 34.6519 33.582 34.7609 33.7479C34.991 34.0979 35.3942 34.4375 36.0463 34.4375C36.6047 34.4375 36.9819 34.5522 37.2892 34.7127C37.5666 34.8576 37.7939 35.0406 38.0734 35.2656C38.1236 35.3061 38.1756 35.3479 38.2298 35.3911C38.5747 35.6658 38.9806 35.9673 39.5399 36.1939C40.1006 36.421 40.7885 36.5625 41.6989 36.5625C42.7375 36.5625 43.2545 36.9526 43.9161 37.4518C43.948 37.4759 43.9802 37.5001 44.0128 37.5246C44.3711 37.794 44.7837 38.0921 45.3217 38.3168C45.7515 38.4964 46.2478 38.6239 46.8516 38.6693V41.2132C46.5413 41.2076 46.0959 41.1993 45.5333 41.1887C44.3691 41.1666 42.7035 41.1341 40.6985 41.0923C36.6884 41.0089 31.3209 40.8885 25.8905 40.7411C20.4595 40.5937 14.9681 40.4192 10.7092 40.2274C8.57926 40.1315 6.76159 40.0314 5.41537 39.9285C4.74168 39.877 4.19138 39.8253 3.78129 39.7736C3.57597 39.7477 3.41114 39.7226 3.28624 39.6985C3.2239 39.6865 3.17509 39.6755 3.13832 39.6657C3.12012 39.6609 3.10639 39.6568 3.09652 39.6536C3.08636 39.6503 3.08259 39.6486 3.08364 39.6491C2.63922 39.4582 2.17388 39.1254 1.71565 38.7161C1.57791 37.4935 1.5 36.2552 1.5 35C1.5 32.5385 1.77848 30.1418 2.29093 27.8303C3.02432 27.5642 3.58776 27.107 4.04853 26.7332C4.07802 26.7092 4.10709 26.6857 4.13576 26.6625C4.71106 26.1974 5.08579 25.9375 5.52213 25.9375C6.0031 25.9375 6.28632 26.0485 6.47835 26.181C6.68169 26.3214 6.82841 26.5156 6.99835 26.7744C7.0184 26.8049 7.03925 26.8373 7.06099 26.871C7.20597 27.0958 7.39039 27.3817 7.63757 27.603C7.95375 27.8861 8.36037 28.0625 8.91377 28.0625C9.45054 28.0625 9.89257 27.872 10.2641 27.65C10.4482 27.54 10.6221 27.4177 10.7817 27.3038C10.8054 27.2868 10.8287 27.2701 10.8518 27.2536C10.9884 27.1558 11.1142 27.0658 11.2431 26.9822C11.5417 26.7886 11.805 26.6654 12.0877 26.6362C12.3612 26.608 12.711 26.6624 13.1881 26.9344L13.1882 26.9344C14.3565 27.6004 15.2649 27.4445 15.9396 27.3286C15.9844 27.321 16.0281 27.3135 16.0708 27.3064C16.4151 27.2493 16.6371 27.2312 16.8407 27.2875C17.0264 27.3388 17.2614 27.4723 17.5598 27.865L17.5598 27.8651C18.0345 28.4895 18.6848 28.6645 19.2955 28.7605C19.4754 28.7888 19.6505 28.8108 19.8243 28.8326C20.2704 28.8886 20.7081 28.9436 21.1962 29.1009L21.1962 29.1009C21.9185 29.3336 22.2803 29.6485 22.6964 30.021L22.724 30.0457C23.1555 30.4322 23.6478 30.8731 24.5652 31.218ZM28.1691 30.1836C28.1691 30.1833 28.1709 30.1834 28.1747 30.1849C28.1711 30.1846 28.1692 30.1839 28.1691 30.1836Z" fill="#00A07D" stroke="black"/>
<path d="M45.5693 40.4982L46.0354 41.5042L15.1416 58.0506L14.8431 57.9802C14.5335 57.9071 14.0872 57.8016 13.5403 57.6722C12.4824 57.4218 11.0484 57.0815 9.50025 56.7118C4.60484 50.9685 1.60921 43.5587 1.50293 35.4468C13.2416 34.163 22.3615 35.3949 29.4965 36.9603C32.1034 37.5322 34.4387 38.1469 36.5509 38.7029C37.3732 38.9193 38.1616 39.1268 38.9191 39.3195C41.4588 39.9654 43.6654 40.4482 45.5693 40.4982Z" fill="#94D75B" stroke="black"/>
<path d="M19.1131 35.3027C23.7277 35.7516 27.7451 36.5378 31.252 37.3643C33.1739 37.8173 34.9241 38.2775 36.5444 38.7035C37.6088 38.9834 38.6172 39.2486 39.5812 39.4872C41.4637 39.9532 43.1573 40.3126 44.6749 40.4462L43.122 41.6409L41.6851 42.1769C40.3692 42.1564 38.7056 41.6828 36.6188 40.9358C35.6917 40.604 34.695 40.2236 33.6203 39.8135C33.467 39.755 33.3122 39.6959 33.1557 39.6363C31.9044 39.1592 30.5544 38.6487 29.1058 38.1377C26.1856 37.1076 22.8626 36.0751 19.1131 35.3027Z" fill="#B0EB81" stroke="black"/>
<path d="M23.6585 17.3274L23.8686 17.6294L24.2194 17.5188C24.4646 17.4414 24.7011 17.3944 24.9409 17.3944C26.1031 17.3944 27.0736 18.2155 27.304 19.3093H12.8615C13.0917 18.2155 14.0623 17.3944 15.2246 17.3944C15.4644 17.3944 15.7009 17.4414 15.9461 17.5188L16.2969 17.6294L16.507 17.3274C17.2958 16.1935 18.6016 15.451 20.0827 15.451C21.5639 15.451 22.8697 16.1935 23.6585 17.3274Z" fill="white" stroke="black"/>
<path d="M46.3861 14.6395L46.5961 14.9414L46.9469 14.8309C47.2181 14.7454 47.4817 14.6926 47.75 14.6926C49.0634 14.6926 50.1568 15.6348 50.3911 16.8801H34.4839C34.7182 15.6348 35.8116 14.6926 37.125 14.6926C37.3933 14.6926 37.6569 14.7454 37.9281 14.8309L38.2789 14.9414L38.4889 14.6395C39.3598 13.3876 40.8017 12.5676 42.4375 12.5676C44.0733 12.5676 45.5152 13.3876 46.3861 14.6395Z" fill="white" stroke="black"/>
<path d="M26.0739 11.5676C26.311 10.1993 27.5039 9.15869 28.94 9.15869C29.1713 9.15869 29.4009 9.19519 29.6391 9.25442L29.9259 9.32571L30.1266 9.10889C30.9279 8.24349 32.0589 7.69775 33.3228 7.69775C35.5671 7.69775 37.4163 9.38963 37.6644 11.5676H26.0739Z" fill="white" stroke="black"/>
<path d="M35 68.5C21.621 68.5 10.0811 60.6523 4.71278 49.3104C21.5979 49.2114 32.4744 45.5466 41.6937 41.878C42.8653 41.4118 44.0084 40.9464 45.1322 40.4889C52.8371 37.3521 59.6354 34.5844 68.4897 34.4469C68.4955 34.6323 68.5 34.8149 68.5 35C68.5 53.5015 53.5015 68.5 35 68.5Z" fill="#71BE63" stroke="black"/>
<path d="M47.3522 41.5829C47.2067 41.5829 47.09 41.4654 47.09 41.3217V33.1232C47.09 32.9795 47.2066 32.8621 47.3522 32.8621C47.4976 32.8621 47.6142 32.9794 47.6142 33.1232V41.3217C47.6142 41.4655 47.4975 41.5829 47.3522 41.5829Z" fill="#674447" stroke="black"/>
<path d="M51.6492 32.4249C51.6492 34.7983 49.725 36.7225 47.3516 36.7225C44.9781 36.7225 43.054 34.7983 43.054 32.4249C43.054 31.18 43.5717 28.5426 44.4286 26.206C44.8556 25.0416 45.3543 23.9876 45.8913 23.2345C46.4486 22.4528 46.949 22.1301 47.3516 22.1301C47.7542 22.1301 48.2546 22.4528 48.8119 23.2345C49.3489 23.9876 49.8475 25.0416 50.2745 26.206C51.1314 28.5426 51.6492 31.18 51.6492 32.4249Z" fill="#43AB5F" stroke="black"/>
<path d="M46.3474 22.6814C46.7225 22.2972 47.0623 22.1301 47.3516 22.1301C47.7542 22.1301 48.2546 22.4528 48.8119 23.2345C49.3489 23.9876 49.8476 25.0416 50.2746 26.206C51.1315 28.5426 51.6492 31.18 51.6492 32.425V32.425C51.6492 34.3243 50.4169 35.9359 48.7083 36.504C49.7259 35.6089 50.3684 34.298 50.3684 32.835C50.3684 31.5425 49.8577 29.0112 49.0517 26.8134C48.6473 25.7107 48.156 24.6561 47.5937 23.8675C47.2459 23.3798 46.8297 22.9365 46.3474 22.6814Z" fill="#71BE63" stroke="black"/>
<path d="M35 68.5C26.4783 68.5 18.7167 65.303 12.8074 60.0584C23.0181 58.9104 33.2877 53.4678 42.7594 48.2782C43.2143 48.029 43.6674 47.7803 44.1186 47.5327C48.554 45.0983 52.8044 42.7654 56.8099 40.9822C61.0085 39.1129 64.8887 37.8711 68.3809 37.7377C66.9874 54.9576 52.5788 68.5 35 68.5Z" fill="#43AB5F" stroke="black"/>
<path d="M27.3565 60.589C27.3565 60.802 27.1838 60.9748 26.9707 60.9748C26.7576 60.9748 26.5848 60.802 26.5848 60.589C26.5848 60.3759 26.7576 60.2031 26.9707 60.2031C27.1838 60.2031 27.3565 60.3759 27.3565 60.589Z" fill="#B0EB81" stroke="black"/>
<path d="M31.4904 50.1764C31.4904 50.3894 31.3177 50.5622 31.1046 50.5622C30.8915 50.5622 30.7188 50.3894 30.7188 50.1764C30.7188 49.9633 30.8915 49.7905 31.1046 49.7905C31.3177 49.7905 31.4904 49.9633 31.4904 50.1764Z" fill="#94D75B" stroke="black"/>
<path d="M55.4496 38.5478C55.4496 38.7609 55.2769 38.9336 55.0638 38.9336C54.8507 38.9336 54.678 38.7609 54.678 38.5478C54.678 38.3347 54.8507 38.162 55.0638 38.162C55.2769 38.162 55.4496 38.3347 55.4496 38.5478Z" fill="#94D75B" stroke="black"/>
<path d="M40.6675 62.0055C40.6675 62.2185 40.4947 62.3913 40.2816 62.3913C40.0686 62.3913 39.8958 62.2185 39.8958 62.0055C39.8958 61.7924 40.0686 61.6196 40.2816 61.6196C40.4947 61.6196 40.6675 61.7924 40.6675 62.0055Z" fill="#71BE63" stroke="black"/>
<path d="M45.4389 56.516C45.4389 56.729 45.2661 56.9018 45.0531 56.9018C44.84 56.9018 44.6672 56.729 44.6672 56.516C44.6672 56.3029 44.84 56.1301 45.0531 56.1301C45.2661 56.1301 45.4389 56.3029 45.4389 56.516Z" fill="#B0EB81" stroke="black"/>
<path d="M35.3862 57.7754C35.3862 57.9884 35.2135 58.1612 35.0004 58.1612C34.7873 58.1612 34.6146 57.9884 34.6146 57.7754C34.6146 57.5623 34.7873 57.3895 35.0004 57.3895C35.2135 57.3895 35.3862 57.5623 35.3862 57.7754Z" fill="#71BE63" stroke="black"/>
<path d="M20.5112 61.4742C20.5112 61.6873 20.3384 61.86 20.1253 61.86C19.9122 61.86 19.7395 61.6873 19.7395 61.4742C19.7395 61.2611 19.9122 61.0884 20.1253 61.0884C20.3384 61.0884 20.5112 61.2611 20.5112 61.4742Z" fill="#71BE63" stroke="black"/>
<path d="M21.3967 53.9987C21.3967 54.2118 21.2239 54.3846 21.0108 54.3846C20.7977 54.3846 20.625 54.2118 20.625 53.9987C20.625 53.7857 20.7977 53.6129 21.0108 53.6129C21.2239 53.6129 21.3967 53.7857 21.3967 53.9987Z" fill="#B0EB81" stroke="black"/>
<path d="M36.2717 46.8648C36.2717 47.0779 36.0989 47.2507 35.8858 47.2507C35.6727 47.2507 35.5 47.0779 35.5 46.8648C35.5 46.6517 35.6727 46.479 35.8858 46.479C36.0989 46.479 36.2717 46.6517 36.2717 46.8648Z" fill="#B0EB81" stroke="black"/>
<path d="M14.1335 53.556C14.1335 53.7691 13.9608 53.9418 13.7477 53.9418C13.5346 53.9418 13.3619 53.7691 13.3619 53.556C13.3619 53.3429 13.5346 53.1702 13.7477 53.1702C13.9608 53.1702 14.1335 53.3429 14.1335 53.556Z" fill="#94D75B" stroke="black"/>
<path d="M51.65 52.6706C51.65 52.8837 51.4773 53.0564 51.2642 53.0564C51.0511 53.0564 50.8784 52.8837 50.8784 52.6706C50.8784 52.4575 51.0511 52.2848 51.2642 52.2848C51.4773 52.2848 51.65 52.4575 51.65 52.6706Z" fill="#B0EB81" stroke="black"/>
<path d="M60.2224 50.1764C60.2224 50.3894 60.0497 50.5622 59.8366 50.5622C59.6235 50.5622 59.4507 50.3894 59.4507 50.1764C59.4507 49.9633 59.6235 49.7905 59.8366 49.7905C60.0497 49.7905 60.2224 49.9633 60.2224 50.1764Z" fill="#B0EB81" stroke="black"/>
<path d="M43.8255 51.7852C43.8255 51.9983 43.6527 52.1711 43.4397 52.1711C43.2266 52.1711 43.0538 51.9983 43.0538 51.7852C43.0538 51.5722 43.2266 51.3994 43.4397 51.3994C43.6527 51.3994 43.8255 51.5722 43.8255 51.7852Z" fill="#71BE63" stroke="black"/>
<path d="M51.65 58.581C51.65 58.7941 51.4773 58.9668 51.2642 58.9668C51.0511 58.9668 50.8784 58.7941 50.8784 58.581C50.8784 58.3679 51.0511 58.1952 51.2642 58.1952C51.4773 58.1952 51.65 58.3679 51.65 58.581Z" fill="#71BE63" stroke="black"/>
<path d="M54.3342 47.7503C54.3342 47.9634 54.1614 48.1362 53.9483 48.1362C53.7352 48.1362 53.5625 47.9634 53.5625 47.7503C53.5625 47.5372 53.7352 47.3645 53.9483 47.3645C54.1614 47.3645 54.3342 47.5372 54.3342 47.7503Z" fill="#71BE63" stroke="black"/>
<path d="M60.2224 42.608C60.2224 42.8211 60.0497 42.9938 59.8366 42.9938C59.6235 42.9938 59.4507 42.8211 59.4507 42.608C59.4507 42.3949 59.6235 42.2222 59.8366 42.2222C60.0497 42.2222 60.2224 42.3949 60.2224 42.608Z" fill="#71BE63" stroke="black"/>
<circle cx="175" cy="35" r="33.5" fill="#FFBCBC" stroke="black" stroke-width="3"/>
<g clip-path="url(#clip3)">
<path d="M170.126 45.4156C170.254 44.848 170.31 44.2529 170.283 43.6406C170.13 40.1162 167.223 37.2839 163.696 37.2184C159.925 37.148 156.846 40.1839 156.846 43.9387C156.846 44.6224 156.949 45.2816 157.139 45.9031C157.27 46.3304 157.094 46.7889 156.726 47.0431C154.91 48.2981 153.741 50.4236 153.825 52.8171C153.95 56.362 156.861 59.2254 160.407 59.2954C162.346 59.3338 164.102 58.5494 165.352 57.2691C165.649 56.9641 166.099 56.8758 166.49 57.0443C167.238 57.3662 168.07 57.531 168.943 57.4966C171.885 57.3801 174.267 54.9723 174.353 52.029C174.424 49.5545 172.902 47.4258 170.737 46.5941C170.266 46.4132 170.015 45.9074 170.126 45.4156Z" fill="#A3DEFE"/>
<path d="M166.492 57.045C167.239 57.3662 168.07 57.531 168.943 57.4966C171.879 57.3801 174.256 54.9829 174.352 52.0488C170.919 54.8767 166.808 52.9438 165.626 51.134C165.389 50.7715 164.88 50.7048 164.551 50.9857C160.12 54.7592 155.212 51.5142 155.372 48.282C154.381 49.474 153.794 51.0139 153.822 52.6923C153.883 56.2866 156.813 59.2244 160.407 59.2954C162.347 59.3335 164.102 58.5494 165.352 57.2688C165.647 56.9659 166.103 56.8781 166.492 57.045Z" fill="#7ACEFA"/>
<path d="M162.835 17.2222C162.835 19.7179 160.812 21.7408 158.316 21.7408C155.82 21.7408 153.797 19.7179 153.797 17.2222C153.797 14.7264 155.82 12.7031 158.316 12.7031C160.812 12.7031 162.835 14.7264 162.835 17.2222Z" fill="#A3DEFE"/>
<path d="M162.211 19.5121C157.37 20.0837 155.54 15.4717 156.701 13.0016C155.003 13.652 153.797 15.2955 153.797 17.2222C153.797 19.7179 155.82 21.7408 158.316 21.7408C159.976 21.7412 161.426 20.8455 162.211 19.5121Z" fill="#7ACEFA"/>
<path d="M191.078 37.4323C185.028 33.0942 179.729 27.7951 175.391 21.7453C173.057 18.4908 168.361 18.1062 165.529 20.9382L158.249 28.2184C155.417 31.0507 155.801 35.7466 159.056 38.0805C165.105 42.4186 170.405 47.7177 174.743 53.7675C177.077 57.022 181.772 57.4062 184.604 54.5743L191.885 47.294C194.717 44.4621 194.332 39.7662 191.078 37.4323Z" fill="#6A96D7"/>
<path d="M177.922 52.0991C177.806 51.983 177.698 51.8548 177.6 51.7186C175.33 48.5527 172.782 45.5508 170.027 42.7962C167.272 40.0416 164.271 37.4935 161.105 35.2233C160.968 35.1255 160.84 35.0171 160.724 34.9011C159.57 33.7471 159.575 31.8644 160.735 30.7046L168.015 23.4244C169.175 22.2642 171.057 22.2598 172.212 23.4138C172.328 23.5298 172.436 23.6576 172.534 23.7939C174.804 26.9598 177.352 29.962 180.107 32.7166C182.861 35.4712 185.863 38.019 189.029 40.2895C189.166 40.3873 189.293 40.4953 189.409 40.6114C190.563 41.7653 190.559 43.648 189.399 44.8078L182.119 52.0884C181.552 52.6546 180.801 52.9637 180.004 52.9596C179.212 52.9553 178.473 52.6498 177.922 52.0994C177.922 52.0991 177.922 52.0991 177.922 52.0991Z" fill="#8EAFE2"/>
<path d="M191.845 16.4587C190.083 16.4645 188.446 17.0058 187.089 17.9283C186.753 18.1575 186.327 18.2194 185.946 18.0762C185.073 17.7481 184.121 17.5811 183.126 17.6111C179.238 17.7294 176.082 20.9081 175.989 24.7973C175.891 28.9487 179.227 32.3449 183.356 32.3449C184.267 32.3449 185.14 32.179 185.946 31.8765C186.327 31.7333 186.752 31.7945 187.089 32.0237C188.453 32.9513 190.1 33.4937 191.873 33.4937C196.617 33.4937 200.455 29.6155 200.39 24.8562C200.326 20.2105 196.491 16.4436 191.845 16.4587Z" fill="#A3DEFE"/>
<path d="M186.951 25.0514C183.062 24.9782 181.031 20.3536 184.018 17.6389C183.725 17.6129 183.428 17.6019 183.126 17.6111C179.238 17.7294 176.082 20.9081 175.989 24.7969C175.891 28.9483 179.227 32.3445 183.356 32.3445C184.267 32.3445 185.14 32.179 185.945 31.8765C186.327 31.7329 186.752 31.7944 187.089 32.0237C188.453 32.9509 190.099 33.4937 191.873 33.4937C193.105 33.4937 194.276 33.2315 195.333 32.7609C189.849 33.2399 187.353 28.5549 187.673 25.8834C187.725 25.4498 187.388 25.0598 186.951 25.0514Z" fill="#7ACEFA"/>
<path d="M168.818 27.8968C168.43 27.8968 168.115 27.5823 168.115 27.1937V25.7325C168.115 25.3444 168.43 25.0294 168.818 25.0294C169.207 25.0294 169.522 25.3444 169.522 25.7325V27.1937C169.522 27.5823 169.207 27.8968 168.818 27.8968Z" fill="#6A96D7"/>
<path d="M171.089 30.1139C170.7 30.1139 170.385 29.7993 170.385 29.4108V27.2849C170.385 26.8964 170.7 26.5818 171.089 26.5818C171.477 26.5818 171.792 26.8964 171.792 27.2849V29.4108C171.792 29.7993 171.477 30.1139 171.089 30.1139Z" fill="#6A96D7"/>
<path d="M181.367 50.4569C180.979 50.4569 180.664 50.1423 180.664 49.7538V47.2214C180.664 46.8329 180.979 46.5183 181.367 46.5183C181.755 46.5183 182.07 46.8329 182.07 47.2214V49.7538C182.07 50.1423 181.755 50.4569 181.367 50.4569Z" fill="#6A96D7"/>
<path d="M171.097 32.8971C170.198 31.9977 168.888 31.849 168.171 32.5653C167.455 33.282 167.603 34.5919 168.503 35.4913C169.403 36.3907 170.713 36.5394 171.429 35.8231C172.145 35.1068 171.997 33.7969 171.097 32.8971Z" fill="white"/>
<path d="M179.925 41.7257C179.026 40.8259 177.716 40.6776 177 41.3939C176.283 42.1102 176.432 43.4201 177.331 44.3196C178.231 45.2193 179.541 45.3677 180.257 44.6513C180.973 43.935 180.825 42.6251 179.925 41.7257Z" fill="white"/>
<path d="M186.694 32.6049C188.225 33.6464 190.016 34.1968 191.873 34.1968C194.36 34.1968 196.692 33.2216 198.438 31.4509C200.184 29.6803 201.127 27.3351 201.093 24.8467C201.054 22.04 199.75 19.4341 197.515 17.6964C197.208 17.458 196.766 17.5133 196.528 17.8198C196.29 18.1263 196.345 18.568 196.652 18.8064C198.548 20.2804 199.654 22.489 199.687 24.8657C199.716 26.9751 198.917 28.9629 197.437 30.4633C195.957 31.964 193.981 32.7905 191.873 32.7905C190.299 32.7905 188.781 32.324 187.485 31.4421C186.954 31.0811 186.286 30.9976 185.698 31.218C184.95 31.4989 184.162 31.6414 183.355 31.6414C181.545 31.6414 179.851 30.928 178.586 29.6323C177.322 28.3374 176.649 26.6261 176.692 24.8137C176.732 23.113 177.422 21.505 178.633 20.2855C179.844 19.0657 181.448 18.3655 183.147 18.3138C184.026 18.2875 184.885 18.4285 185.699 18.7343C186.286 18.9547 186.954 18.8708 187.485 18.5094C188.774 17.6327 190.282 17.1665 191.847 17.1617C192.556 17.1562 193.266 17.254 193.948 17.4437C194.322 17.5481 194.71 17.3287 194.814 16.9548C194.918 16.5806 194.699 16.1931 194.324 16.0891C193.528 15.8676 192.703 15.7555 191.873 15.7555H191.843C189.996 15.7614 188.216 16.3118 186.694 17.3467C186.541 17.4514 186.353 17.4778 186.193 17.4177C185.207 17.0475 184.169 16.8757 183.104 16.9083C181.043 16.9709 179.101 17.8184 177.635 19.2946C176.988 19.946 176.465 20.6898 176.077 21.4944C176.039 21.4413 176 21.3878 175.962 21.3351C174.729 19.6157 172.813 18.5306 170.704 18.3582C168.595 18.1853 166.528 18.9448 165.032 20.4408L157.751 27.7211C156.255 29.217 155.496 31.2847 155.669 33.3933C155.836 35.4346 156.858 37.2957 158.483 38.5309C157.525 39.4332 156.814 40.5824 156.443 41.844C156.334 42.2168 156.547 42.6075 156.92 42.717C156.986 42.7365 157.052 42.7456 157.118 42.7456C157.422 42.7456 157.703 42.5468 157.792 42.2402C158.117 41.1343 158.766 40.1349 159.641 39.3794C164.903 43.2993 169.544 47.9429 173.462 53.2075C172.881 55.2506 171.053 56.7089 168.915 56.7938C168.169 56.8228 167.446 56.6902 166.768 56.3983C166.105 56.113 165.352 56.2621 164.848 56.7777C163.674 57.9811 162.101 58.6241 160.421 58.5923C158.886 58.5619 157.432 57.9463 156.326 56.8579C155.22 55.7699 154.582 54.3259 154.528 52.7922C154.455 50.7286 155.427 48.7954 157.126 47.6213C157.755 47.1866 158.03 46.4132 157.811 45.6973C157.761 45.5314 157.717 45.3615 157.681 45.1919C157.6 44.8121 157.227 44.569 156.847 44.6503C156.467 44.7312 156.224 45.1044 156.305 45.4841C156.35 45.6936 156.404 45.9038 156.467 46.1085C156.506 46.2363 156.449 46.3795 156.326 46.4645C154.231 47.9125 153.033 50.2965 153.122 52.8417C153.189 54.7365 153.976 56.5188 155.339 57.8606C156.702 59.2017 158.497 59.9612 160.393 59.9985C160.444 59.9993 160.495 60 160.545 60C162.561 60 164.442 59.2079 165.854 57.7599C165.948 57.6643 166.088 57.6368 166.212 57.6903C167.085 58.0657 168.013 58.2374 168.971 58.199C171.372 58.1038 173.468 56.662 174.457 54.549C175.69 56.0522 177.477 56.9945 179.429 57.1542C179.626 57.1703 179.823 57.1783 180.019 57.1783C181.92 57.1783 183.745 56.4276 185.101 55.0715L192.382 47.7913C193.878 46.2949 194.637 44.2277 194.464 42.119C194.292 40.0104 193.207 38.0936 191.487 36.8606C189.63 35.5287 187.824 34.0869 186.104 32.5657C186.133 32.5551 186.163 32.5455 186.193 32.5345C186.353 32.4745 186.541 32.5009 186.694 32.6049ZM179.609 33.2135C182.391 35.9956 185.423 38.5686 188.619 40.8604C188.725 40.9362 188.823 41.0197 188.912 41.1086C189.337 41.5334 189.57 42.1007 189.569 42.7057C189.567 43.3121 189.33 43.882 188.901 44.3104L181.621 51.5911C181.189 52.0232 180.618 52.2594 180.008 52.2561C179.405 52.2528 178.843 52.0228 178.425 51.6075C178.423 51.6057 178.421 51.6035 178.419 51.6017C178.419 51.6017 178.419 51.6013 178.419 51.6013C178.33 51.5127 178.247 51.4142 178.171 51.3087C175.879 48.1124 173.306 45.0809 170.524 42.2988C167.743 39.5171 164.711 36.9445 161.514 34.652C161.409 34.5762 161.31 34.493 161.221 34.4041C160.341 33.524 160.346 32.0874 161.232 31.2019L168.512 23.9213C168.941 23.4928 169.511 23.2559 170.117 23.2544H170.123C170.726 23.2544 171.291 23.4873 171.714 23.911C171.803 23.9996 171.887 24.0985 171.962 24.204C174.255 27.4003 176.828 30.4318 179.609 33.2135ZM190.668 38.0035C192.051 38.9952 192.924 40.537 193.063 42.2336C193.202 43.9299 192.591 45.5933 191.388 46.7966L184.107 54.0769C182.904 55.2806 181.24 55.8915 179.544 55.7523C177.848 55.6139 176.306 54.7408 175.314 53.3577C171.062 47.4283 165.929 42.2417 160.049 37.9321C160.048 37.9314 160.047 37.9307 160.046 37.9296C159.853 37.7886 159.66 37.6483 159.465 37.5092C158.082 36.5171 157.209 34.9753 157.07 33.2791C156.932 31.5824 157.542 29.9194 158.746 28.7157L166.026 21.4354C167.23 20.2321 168.893 19.6216 170.589 19.76C172.286 19.8988 173.828 20.7719 174.82 22.155C175.041 22.4637 175.272 22.7794 175.508 23.0969C175.376 23.6444 175.3 24.2076 175.286 24.7804C175.273 25.3385 175.317 25.8885 175.413 26.4243C174.616 25.4304 173.845 24.4164 173.105 23.384C172.985 23.2167 172.851 23.0592 172.709 22.9167C172.02 22.2275 171.102 21.8485 170.123 21.8485H170.114C169.133 21.8507 168.211 22.2338 167.518 22.9274L160.237 30.2076C158.803 31.6417 158.799 33.9701 160.227 35.3987C160.37 35.5415 160.527 35.6748 160.694 35.7949C163.83 38.0427 166.802 40.5659 169.53 43.2935C172.258 46.0217 174.781 48.9943 177.028 52.1283C177.146 52.2935 177.278 52.448 177.417 52.589C177.42 52.5916 177.423 52.5941 177.425 52.5967C178.107 53.2786 179.022 53.6576 180 53.6627H180.021C180.999 53.6627 181.92 53.2808 182.615 52.5857L189.896 45.3054C191.33 43.8713 191.335 41.5426 189.906 40.1144C189.764 39.9716 189.606 39.8383 189.439 39.7181C186.503 37.6128 183.709 35.2661 181.125 32.7356C181.841 32.9399 182.589 33.0476 183.356 33.0476C183.725 33.0476 184.091 33.0227 184.453 32.9736C186.423 34.7648 188.511 36.4567 190.668 38.0035ZM178.974 41.4825C179.153 41.4825 179.333 41.4141 179.471 41.2767L180.046 40.7014C180.32 40.4268 180.32 39.9818 180.046 39.7072C179.771 39.4325 179.326 39.4325 179.052 39.7072L178.476 40.2825C178.202 40.5571 178.202 41.0021 178.476 41.2767C178.614 41.4141 178.794 41.4825 178.974 41.4825ZM158.316 22.444C161.195 22.444 163.538 20.1013 163.538 17.2222C163.538 14.3427 161.195 12 158.316 12C155.436 12 153.094 14.3427 153.094 17.2222C153.094 20.1013 155.436 22.444 158.316 22.444ZM158.316 13.4062C160.42 13.4062 162.132 15.1179 162.132 17.2222C162.132 19.326 160.42 21.0377 158.316 21.0377C156.212 21.0377 154.5 19.326 154.5 17.2222C154.5 15.1179 156.212 13.4062 158.316 13.4062ZM171.546 34.3469C171.684 34.4839 171.864 34.5527 172.044 34.5527C172.224 34.5527 172.403 34.4839 172.541 34.3469L173.116 33.7716C173.39 33.4969 173.39 33.052 173.116 32.7773C172.841 32.5027 172.396 32.5027 172.122 32.7773L171.546 33.3523C171.272 33.627 171.272 34.0723 171.546 34.3469ZM176.278 38.9608C176.333 38.9608 176.389 38.959 176.444 38.955C176.832 38.9282 177.125 38.5928 177.098 38.2053C177.071 37.8179 176.735 37.5264 176.348 37.552C176.056 37.5725 175.77 37.4652 175.564 37.259C175.358 37.0529 175.251 36.7668 175.271 36.4746C175.297 36.0872 175.005 35.7517 174.618 35.725C174.231 35.6997 173.895 35.9908 173.868 36.3783C173.82 37.0763 174.076 37.7596 174.569 38.2533C175.024 38.7081 175.639 38.9608 176.278 38.9608Z" fill="black"/>
</g>
<defs>
<clipPath id="clip0">
<rect width="50.5556" height="50.5556" fill="white" transform="translate(220.111 10.1111)"/>
</clipPath>
<clipPath id="clip1">
<rect width="46.6667" height="46.6667" fill="white" transform="translate(81.6667 11.6666)"/>
</clipPath>
<clipPath id="clip2">
<rect width="70" height="70" fill="white" transform="translate(70)"/>
</clipPath>
<clipPath id="clip3">
<rect width="48" height="48" fill="white" transform="translate(153 12)"/>
</clipPath>
</defs>
</svg>
