<svg height="511pt" viewBox="0 -18 511.99945 511" width="511pt" xmlns="http://www.w3.org/2000/svg"><path d="m416.554688 45.191406c0 24.679688-20.007813 44.691406-44.6875 44.691406-24.683594 0-44.691407-20.011718-44.691407-44.691406 0-24.683594 20.007813-44.691406 44.691407-44.691406 24.679687 0 44.6875 20.007812 44.6875 44.691406zm0 0" fill="#d2e7fa"/><path d="m507.347656 89.882812c0 18.515626-15.011718 33.527344-33.527344 33.527344-18.515624 0-33.527343-15.011718-33.527343-33.527344 0-18.515624 15.011719-33.527343 33.527343-33.527343 18.515626 0 33.527344 15.011719 33.527344 33.527343zm0 0" fill="#d2e7fa"/><path d="m410.207031 136.808594h-.003906c-15.390625 0-36.351563 2.3125-57.671875 5.816406-44.964844 7.390625-90.710938 7.390625-135.679688 0-21.316406-3.503906-42.28125-5.816406-57.671874-5.816406-56.21875 0-101.792969 49.375-101.792969 110.28125v52.308594c0 60.910156 45.574219 110.285156 101.792969 110.285156 15.390624 0 36.355468-2.316406 57.671874-5.820313 44.96875-7.386719 90.714844-7.386719 135.679688 0 21.320312 3.503907 42.28125 5.820313 57.671875 5.820313h.003906c56.214844 0 101.789063-49.375 101.789063-110.285156v-52.308594c0-60.90625-45.570313-110.28125-101.789063-110.28125zm0 0" fill="#f95daa"/><path d="m512 247.089844v52.308594c0 30.453124-11.390625 58.019531-29.816406 77.976562-18.417969 19.957031-43.867188 32.300781-71.976563 32.300781-15.398437 0-36.359375-2.308593-57.671875-5.8125-44.964844-7.394531-90.710937-7.394531-135.679687 0-10.660157 1.757813-21.230469 3.207031-31.058594 4.222657-9.828125 1.015624-18.929687 1.589843-26.621094 1.589843-26.386719 0-50.429687-10.875-68.507812-28.714843 13.300781 6.910156 28.195312 10.773437 43.929687 10.773437 22.496094 0 43.683594-6.851563 65.605469-10.769531 63.328125-11.308594 129.636719 2.628906 193.390625 3.488281 25.441406.34375 46.535156-6.09375 64-25.019531 18.425781-19.957032 29.816406-47.523438 29.816406-77.976563v-52.308593c0-32.324219-12.828125-61.390626-33.277344-81.570313 34.234376 17.765625 57.867188 55.644531 57.867188 99.511719zm0 0" fill="#e53ca4"/><path d="m385.472656 339.914062h-201.5625c-21.488281 0-38.910156-17.421874-38.910156-38.910156v-55.519531c0-21.488281 17.421875-38.910156 38.910156-38.910156h201.566406c21.488282 0 38.910157 17.421875 38.910157 38.910156v55.519531c0 21.488282-17.421875 38.910156-38.914063 38.910156zm0 0" fill="#f1c600"/><path d="m424.390625 245.488281v55.515625c0 21.492188-17.425781 38.914063-38.917969 38.914063h-201.566406c-21.484375 0-38.90625-17.417969-38.90625-38.90625v-1.445313c6.03125 11.183594 17.851562 18.785156 31.449219 18.785156h195.554687c13.800782 0 24.992188-11.191406 24.992188-24.996093v-61.609375c0-9.808594-3.964844-18.703125-10.382813-25.152344 20.972657.59375 37.777344 17.777344 37.777344 38.894531zm0 0" fill="#efa628"/><path d="m215.949219 341.320312c-1.613281-13.667968-9.933594-25.941406-22.023438-32.515624-6.515625-3.542969-12.96875-2.992188-19.578125-5.160157-6.023437-1.972656-6.523437-8.613281-7.625-14.105469-4.199218-20.925781-23.597656-35.675781-44.886718-34.128906-14.867188 1.082032-27.253907 9.558594-34.039063 21.453125-3.0625 5.371094-9.597656 7.707031-15.320313 5.367188-7.03125-2.871094-14.941406-3.90625-23.058593-2.574219-21.65625 3.554688-37.246094 23.386719-35.597657 45.269531.515626 6.878907 2.621094 13.222657 5.914063 18.726563 3.214844 5.375 1.8125 12.375-3.140625 16.210937-11.457031 8.863281-18.117188 23.335938-16.296875 38.769531 1.402344 11.871094 7.847656 22.773438 17.570313 29.726563 4.753906 3.402344 10.203124 5.816406 15.921874 7.035156 6.21875 1.320313 12.316407-.851562 16.113282 5.671875 3.53125 6.066406 4.332031 12.691406 9.003906 18.433594 9.15625 11.238281 23.722656 17.15625 38.121094 15.457031 12.71875-1.5 23.464844-8.449219 30.1875-18.234375 3.042968-4.429687 8.667968-6.164062 13.832031-4.671875 5.550781 1.605469 11.523437 2.101563 17.632813 1.265625 21.972656-3.011718 38.183593-22.761718 36.792968-44.898437-.277344-4.382813-1.195312-8.550781-2.652344-12.429688-1.992187-5.304687.109376-11.214843 4.789063-14.410156 12.699219-8.667969 20.265625-23.925781 18.339844-40.257813zm0 0" fill="#78bfea"/><path d="m215.953125 341.324219c-1.613281-13.667969-9.933594-25.941407-22.03125-32.515625-.421875-.226563-.832031-.433594-1.253906-.625 3.089843 5.125 5.105469 10.894531 5.824219 16.945312 1.929687 16.332032-5.640626 31.582032-18.332032 40.25-4.683594 3.195313-6.789062 9.109375-4.796875 14.410156 1.457031 3.882813 2.382813 8.050782 2.648438 12.429688 1.398437 22.132812-14.808594 41.894531-36.789063 44.902344-6.109375.832031-12.078125.339844-17.625-1.261719-5.164062-1.5-10.792968.234375-13.835937 4.664063-6.726563 9.785156-17.46875 16.742187-30.183594 18.238281-8.207031.964843-16.464844-.542969-23.746094-4.097657.832031 1.65625 1.816407 3.277344 3.082031 4.839844 9.148438 11.234375 23.714844 17.152344 38.113282 15.457032 12.714844-1.5 23.46875-8.453126 30.1875-18.230469 3.046875-4.4375 8.667968-6.171875 13.832031-4.671875 5.546875 1.601562 11.527344 2.09375 17.636719 1.261718 21.96875-3.007812 38.175781-22.761718 36.789062-44.90625-.277344-4.375-1.191406-8.542968-2.648437-12.425781-1.992188-5.300781.113281-11.214843 4.785156-14.410156 12.695313-8.667969 20.265625-23.921875 18.34375-40.253906zm0 0" fill="#3ca7dd"/><path d="m114.292969 185.015625c0 18.515625-15.011719 33.523437-33.527344 33.523437s-33.527344-15.007812-33.527344-33.523437c0-18.519531 15.011719-33.527344 33.527344-33.527344s33.527344 15.007813 33.527344 33.527344zm0 0" fill="#d2e7fa"/></svg>