<svg width="50" height="50" viewBox="0 0 50 50" fill="none" xmlns="http://www.w3.org/2000/svg">
<path d="M47.7242 39.5977C47.3331 41.9266 45.4365 43.7126 43.0893 43.9648C31.8188 45.1786 20.5475 45.2232 9.27696 44.0971C8.84895 44.0548 8.42171 44.0113 7.9937 43.9648C5.64537 43.7126 3.7487 41.9266 3.35808 39.5977C1.93825 31.1504 1.93825 22.702 3.35808 14.2536C3.7487 11.9247 5.64537 10.1402 7.9937 9.88693C8.42094 9.84116 8.84781 9.79691 9.27506 9.75456C20.5463 8.62923 31.818 8.67272 43.0893 9.88693C45.4365 10.1402 47.3331 11.9247 47.7242 14.2536C49.1436 22.702 49.1436 31.1504 47.7242 39.5977Z" fill="#8E66B5"/>
<path d="M47.7242 39.5977C47.3331 41.9266 45.4365 43.7126 43.0893 43.9648C31.8188 45.1786 20.5475 45.2232 9.27696 44.0971C7.69577 43.3483 6.52962 41.8636 6.22749 40.0662C4.75502 31.3057 4.75502 22.546 6.22749 13.7852C6.52962 11.9892 7.69501 10.5042 9.27506 9.75456C20.5463 8.62923 31.818 8.67272 43.0893 9.88693C45.4365 10.1402 47.3331 11.9247 47.7242 14.2536C49.1436 22.702 49.1436 31.1504 47.7242 39.5977V39.5977Z" fill="#BDA4E0"/>
<path d="M8.65059 33.9829C7.78314 29.6609 7.78314 25.3389 8.65059 21.0174C9.0324 19.1133 10.6711 17.6981 12.6374 17.5439C21.8791 16.8187 31.1208 16.8187 40.3629 17.5439C42.3293 17.6981 43.9675 19.1133 44.3497 21.0174C45.2168 25.3389 45.2168 29.6609 44.3497 33.9829C43.9675 35.8866 42.3293 37.3023 40.3629 37.4564C31.1208 38.1812 21.8791 38.1812 12.6374 37.4564C10.6711 37.3018 9.0324 35.8866 8.65059 33.9829Z" fill="#8E66B5"/>
<path d="M50 11.4628C50 13.9744 47.963 16.0107 45.451 16.0107C43.6592 16.0107 42.1089 14.9734 41.3685 13.4666C40.8195 13.7978 40.1764 13.9889 39.4886 13.9889C37.4794 13.9889 35.8498 12.3604 35.8498 10.3512C35.8498 8.34084 37.4794 6.71196 39.4886 6.71196C39.7419 6.71196 39.9891 6.7379 40.2271 6.78749C39.8869 6.20537 39.6904 5.52902 39.6904 4.80652C39.6904 2.63672 41.4494 0.878906 43.6176 0.878906C45.787 0.878906 47.5452 2.63672 47.5452 4.80652C47.5452 5.66978 47.266 6.4682 46.7934 7.11555C47.5098 7.33681 48.1499 7.72972 48.666 8.24661H48.6671C49.4911 9.06982 50 10.2074 50 11.4628V11.4628Z" fill="#CDCFE0"/>
<path d="M45.6841 1.46637C45.4102 1.40533 45.1237 1.37329 44.8311 1.37329C42.6617 1.37329 40.9035 3.1311 40.9035 5.30052C40.9035 6.02341 41.0992 6.69975 41.4402 7.28188C41.2014 7.23228 40.9542 7.20634 40.7009 7.20634C38.6917 7.20634 37.0632 8.83522 37.0632 10.8444C37.0632 12.1349 37.7342 13.2683 38.7474 13.9133C37.093 13.5712 35.8501 12.1071 35.8501 10.3512C35.8501 8.34084 37.4786 6.71196 39.4878 6.71196C39.7415 6.71196 39.9883 6.7379 40.2275 6.78749C39.8872 6.20537 39.6908 5.52902 39.6908 4.80652C39.6908 2.63672 41.4486 0.878906 43.618 0.878906C44.376 0.878906 45.0844 1.09406 45.6841 1.46637V1.46637Z" fill="#ABAEC4"/>
<path d="M32.1106 8.07724C32.1106 9.33571 31.242 10.3912 30.0724 10.677C29.8676 10.7285 29.6524 10.7555 29.4323 10.7555C27.9533 10.7555 26.754 9.55582 26.754 8.07724C26.754 6.59752 27.9533 5.39894 29.4323 5.39894C29.6524 5.39894 29.8676 5.42564 30.0724 5.47752C31.242 5.76286 32.1106 6.81877 32.1106 8.07724V8.07724Z" fill="#ABAEC4"/>
<path d="M32.1106 8.07724C32.1106 9.33571 31.242 10.3912 30.0724 10.677C28.9028 10.3912 28.0342 9.33571 28.0342 8.07724C28.0342 6.81877 28.9028 5.76286 30.0724 5.47752C31.242 5.76286 32.1106 6.81877 32.1106 8.07724Z" fill="#CDCFE0"/>
<path d="M12.8456 8.31795C12.8456 10.0727 11.4227 11.4956 9.66797 11.4956C9.22012 11.4956 8.79402 11.4029 8.40721 11.2362C7.83844 12.9528 6.22139 14.1914 4.31328 14.1914C1.931 14.1914 0.00038147 12.2601 0.00038147 9.8774C0.00038147 7.49588 1.931 5.5645 4.31328 5.5645C5.3463 5.5645 6.29463 5.92842 7.03735 6.53419C7.60918 5.69267 8.57391 5.1403 9.66797 5.1403C10.3317 5.1403 10.9482 5.34401 11.4578 5.69267H11.459C12.2967 6.26526 12.8456 7.22694 12.8456 8.31795Z" fill="#CDCFE0"/>
<path d="M11.4578 5.69267C7.34864 5.48248 6.94428 9.49707 6.94428 9.49707C6.94428 9.49707 6.18096 7.83501 7.03736 6.53419C7.60918 5.69267 8.57392 5.1403 9.66797 5.1403C10.3317 5.1403 10.9482 5.34401 11.4578 5.69267Z" fill="#ABAEC4"/>
<path d="M1.88599 9.87778C1.88599 11.9358 3.32756 13.6574 5.25513 14.0877C4.95224 14.156 4.63676 14.1922 4.31328 14.1922C1.93062 14.1922 0 12.2604 0 9.87778C0 7.49626 1.93062 5.56488 4.31328 5.56488C4.63791 5.56488 4.95415 5.60074 5.25818 5.66826C3.3287 6.09741 1.88599 7.82013 1.88599 9.87778Z" fill="#ABAEC4"/>
<path d="M12.3013 42.086C11.9865 42.086 11.6817 42.1276 11.3911 42.2047C11.3911 42.1989 11.3914 42.1928 11.3914 42.1871C11.3914 39.8987 9.53636 38.0432 7.24792 38.0432C4.95949 38.0432 3.10402 39.8987 3.10402 42.1871C3.10402 44.4756 4.95949 46.3306 7.24792 46.3306C7.79228 46.3306 8.31184 46.2246 8.7883 46.0339C8.992 47.794 10.4866 49.1608 12.3013 49.1608C14.2551 49.1608 15.8386 47.5769 15.8386 45.6234C15.8386 43.6699 14.2548 42.086 12.3013 42.086V42.086Z" fill="#CDCFE0"/>
<path d="M8.12454 46.2376C7.84225 46.2986 7.54967 46.3306 7.24869 46.3306C4.96025 46.3306 3.10402 44.4756 3.10402 42.1871C3.10402 39.8987 4.96025 38.0436 7.24869 38.0436C7.54967 38.0436 7.84225 38.0756 8.12454 38.1367C6.25687 38.5387 4.85687 40.1997 4.85687 42.1871C4.85687 44.1746 6.25687 45.8351 8.12454 46.2376Z" fill="#ABAEC4"/>
<path d="M13.179 49.0513C12.899 49.1226 12.6053 49.1608 12.302 49.1608C10.5896 49.1608 9.16176 47.9439 8.83484 46.3276C8.88977 46.3295 8.9447 46.3306 9.0004 46.3306C9.54437 46.3306 10.0643 46.225 10.54 46.0339C10.7098 47.5014 11.7767 48.6946 13.179 49.0513V49.0513Z" fill="#ABAEC4"/>
<path d="M48.666 8.24661C44.8421 6.9519 42.7223 9.91249 42.7223 9.91249C42.9249 7.35207 45.5864 6.84662 46.7934 7.11555C47.5098 7.33681 48.1499 7.72972 48.666 8.24661V8.24661Z" fill="#ABAEC4"/>
<path d="M13 20.9643C13 20.4263 13.426 19.9848 13.9637 19.9656L27 19.5L40.0363 19.9656C40.574 19.9848 41 20.4263 41 20.9643V20.9643C41 21.5302 40.5305 21.9832 39.965 21.963L27 21.5L14.035 21.963C13.4695 21.9832 13 21.5302 13 20.9643V20.9643Z" fill="#BDA4E0"/>
<path d="M13 26.9649C13 26.4265 13.4263 25.9848 13.9643 25.9656L27 25.5L40.0357 25.9656C40.5737 25.9848 41 26.4265 41 26.9649V27.0351C41 27.5735 40.5737 28.0152 40.0357 28.0344L27 28.5L13.9643 28.0344C13.4263 28.0152 13 27.5735 13 27.0351V26.9649Z" fill="#BDA4E0"/>
<path d="M13 33.0357C13 32.4698 13.4695 32.0168 14.035 32.037L27 32.5L39.965 32.037C40.5305 32.0168 41 32.4698 41 33.0357V33.0357C41 33.5737 40.574 34.0152 40.0363 34.0344L27 34.5L13.9637 34.0344C13.426 34.0152 13 33.5737 13 33.0357V33.0357Z" fill="#BDA4E0"/>
</svg>
