<svg width="170" height="50" viewBox="0 0 170 50" fill="none" xmlns="http://www.w3.org/2000/svg">
<rect x="60" width="50" height="50" rx="10" fill="black"/>
<rect x="62" y="2" width="46" height="46" rx="8" fill="#5181B8"/>
<path d="M69.2185 15.918H73.456C74.1156 15.918 74.6985 16.3448 74.8979 16.9736C75.3233 18.3147 76.1673 20.7054 77.3502 22.7865C78.3108 24.4766 79.4757 25.8943 80.3346 26.8327C80.7652 27.3032 81.5494 26.997 81.5494 26.3591V20.2437C81.5494 19.3465 81.268 18.4719 80.7447 17.7432L80.3301 17.1656C80.2339 17.0316 80.1822 16.8709 80.1822 16.7061C80.1822 16.2708 80.535 15.918 80.9703 15.918H86.8961C87.4309 15.918 87.8645 16.3516 87.8645 16.8864V24.7263C87.8645 25.2352 88.3909 25.5735 88.8539 25.3622L89.2569 25.1782C89.3263 25.1466 89.3889 25.1018 89.4411 25.0462C91.4783 22.883 93.1299 20.3867 94.324 17.6658L94.7672 16.6561C94.964 16.2077 95.4074 15.9185 95.8971 15.9189L100.081 15.9238C100.866 15.9247 101.367 16.7615 100.997 17.4537L99.0639 21.0706C98.8139 21.5385 98.5356 21.9907 98.2309 22.4249L95.9688 25.6483C95.5673 26.2206 95.6447 27.0005 96.151 27.4826L97.8076 29.0602C99.0897 30.2811 100.207 31.664 101.132 33.1738L101.627 33.9833C102.09 34.7391 101.546 35.7097 100.66 35.7097H97.0477C96.3171 35.7097 95.6175 35.4142 95.1081 34.8903L91.4962 31.1764C90.7807 30.4407 89.8652 29.9313 88.863 29.7113C88.3501 29.5987 87.8645 29.9893 87.8645 30.5144V34.1634C87.8645 35.0174 87.1723 35.7096 86.3183 35.7096C83.2887 35.7096 80.3433 34.7123 77.9368 32.8717C73.6733 29.6107 70.5821 25.0554 69.1266 19.889L68.3361 17.0832C68.1713 16.4983 68.6108 15.918 69.2185 15.918Z" fill="white"/>
<path d="M100.66 36.6862H97.0478C96.0593 36.6862 95.0972 36.2798 94.4081 35.5713L90.7962 31.8574C90.2573 31.3033 89.5848 30.9095 88.8411 30.7109V34.1635C88.8411 35.5545 87.7094 36.6862 86.3184 36.6862C83.0929 36.6862 79.9056 35.607 77.3436 33.6475C76.3744 32.9062 75.4501 32.0889 74.5963 31.218C74.2188 30.8329 74.2248 30.2146 74.61 29.8369C74.9952 29.4593 75.6135 29.4656 75.991 29.8506C76.7802 30.6555 77.6345 31.411 78.5302 32.0961C80.7535 33.7966 83.5195 34.7331 86.3185 34.7331C86.6326 34.7331 86.8881 34.4775 86.8881 34.1635V30.5145C86.8881 29.9669 87.1328 29.4561 87.5596 29.1128C87.9863 28.7695 88.5381 28.6401 89.0726 28.7576C90.2651 29.0193 91.3452 29.6204 92.1964 30.4956L95.8083 34.2095C96.1319 34.5422 96.5836 34.733 97.0478 34.733H100.66C100.683 34.733 100.752 34.733 100.797 34.6524C100.842 34.5719 100.806 34.5126 100.794 34.4932L100.299 33.6837C99.4191 32.2469 98.3543 30.9291 97.1342 29.7673L95.4776 28.1897C94.6144 27.3678 94.4848 26.063 95.1695 25.0872L97.4317 21.8638C97.7127 21.4632 97.9722 21.0414 98.2028 20.6101L100.136 16.9933C100.142 16.9807 100.153 16.9617 100.134 16.931C100.116 16.9003 100.094 16.9002 100.08 16.9002L95.8959 16.8954C95.7945 16.8954 95.7023 16.9554 95.6615 17.0483L95.2184 18.0581C93.976 20.8887 92.2715 23.465 90.1522 25.7156C90.0124 25.864 89.8477 25.982 89.6621 26.0666L89.2595 26.2504C88.7382 26.4884 88.1395 26.4455 87.6576 26.1356C87.1757 25.8259 86.888 25.299 86.888 24.7261V16.8945H81.3377L81.5382 17.1736C82.1844 18.0737 82.5261 19.1354 82.5261 20.2437V26.3591C82.5261 27.0561 82.1062 27.6696 81.4564 27.9221C80.8073 28.1744 80.0843 28.0054 79.6144 27.492C78.7566 26.5549 77.5203 25.0615 76.5014 23.2689C75.2595 21.0843 74.3806 18.5719 73.9672 17.2688C73.8962 17.0449 73.6908 16.8945 73.4562 16.8945H69.2975L70.0665 19.6241C70.5144 21.2137 71.1299 22.7611 71.896 24.2235C72.1463 24.7013 71.962 25.2915 71.4842 25.5418C71.0063 25.7921 70.4162 25.6076 70.166 25.13C69.337 23.5478 68.671 21.8735 68.1865 20.1537L67.396 17.348C67.2338 16.7722 67.348 16.1685 67.709 15.6916C68.0703 15.2148 68.6203 14.9414 69.2184 14.9414H73.4561C74.5458 14.9414 75.4993 15.6395 75.8289 16.6783C76.2191 17.9083 77.0458 20.2746 78.1992 22.3039C78.9525 23.629 79.8422 24.7815 80.573 25.6303V20.2437C80.573 19.5466 80.3581 18.8789 79.9516 18.3128L79.5369 17.7352C79.3203 17.4336 79.2058 17.0776 79.2058 16.7061C79.2058 15.733 79.9973 14.9414 80.9703 14.9414H86.8962C87.9686 14.9414 88.8411 15.814 88.8411 16.8864V24.2582C90.7558 22.1986 92.2991 19.8496 93.4298 17.2733L93.873 16.2636C94.2252 15.4608 95.0191 14.9424 95.8956 14.9424H95.8982L100.082 14.9472C100.797 14.9479 101.443 15.3146 101.81 15.9278C102.177 16.5411 102.195 17.2836 101.858 17.9139L99.9251 21.5308C99.6575 22.0313 99.3566 22.5209 99.0303 22.9857L96.7682 26.2092C96.6433 26.3872 96.6669 26.6253 96.8243 26.7753L98.4811 28.3528C99.824 29.6317 100.996 31.0821 101.964 32.6639L102.46 33.4733C102.858 34.1239 102.874 34.9416 102.501 35.6071C102.129 36.2728 101.423 36.6862 100.66 36.6862Z" fill="black"/>
<path d="M72.8846 28.6505C72.5805 28.6505 72.2808 28.5089 72.0901 28.2429L72.8837 27.6738L72.0859 28.2371C72.0855 28.2365 72.0796 28.2284 72.0792 28.2277C71.765 27.7894 71.8655 27.1794 72.3038 26.865C72.7422 26.5507 73.3522 26.6514 73.6665 27.0896L73.6774 27.1048C73.9916 27.543 73.891 28.1531 73.4528 28.4675C73.2804 28.591 73.0815 28.6505 72.8846 28.6505Z" fill="black"/>
<path d="M80.0063 45.3125H72.0473C71.508 45.3125 71.0707 44.8753 71.0707 44.3359C71.0707 43.7966 71.508 43.3594 72.0473 43.3594H80.0063C80.5455 43.3594 80.9828 43.7966 80.9828 44.3359C80.9828 44.8753 80.5456 45.3125 80.0063 45.3125Z" fill="black"/>
<path d="M84.4497 45.3125H84.438C83.8988 45.3125 83.4615 44.8753 83.4615 44.3359C83.4615 43.7966 83.8988 43.3594 84.438 43.3594H84.4497C84.9889 43.3594 85.4262 43.7966 85.4262 44.3359C85.4262 44.8753 84.989 45.3125 84.4497 45.3125Z" fill="black"/>
<g clip-path="url(#clip0)">
<path d="M11.2903 49.8928H17.2446L7.84952 43.8714L0.12677 39.3588C0.464075 45.2242 5.34191 49.8928 11.2903 49.8928Z" fill="#FDE494"/>
<path d="M32.7957 46.452L26.0713 44.7316H11.2903C7.97008 44.7316 5.26881 42.0304 5.26881 38.7102V35.4091L2.68815 32.6396L0.107483 33.096V38.7102C0.107483 38.928 0.114514 39.1441 0.126721 39.3589L17.2446 49.893H37.5882L32.7957 46.452Z" fill="#FEA150"/>
<path d="M43.1451 42.8904C42.0494 44.0244 40.5147 44.7316 38.8172 44.7316H26.0713L37.5882 49.8929H38.8172C42.8321 49.8929 46.3591 47.7657 48.3318 44.5794L45.6986 43.0112L43.1451 42.8904Z" fill="#FF5D4A"/>
<path d="M44.8387 31.7692V38.71C44.8387 40.3327 44.1923 41.8064 43.1451 42.8904L48.332 44.5794C49.3889 42.8722 50 40.8613 50 38.71V32.5899L47.3304 31.0901L44.8387 31.7692Z" fill="#E45261"/>
<path d="M50 14.5384L47.2518 13.884L44.8387 15.3288V31.7693L50 32.59V14.5384Z" fill="#FF4D95"/>
<path d="M50 11.1831C50 5.56697 45.8383 0.905151 40.437 0.118042L33.671 2.93357L30.2425 5.1616H38.8172C42.1374 5.1616 44.8387 7.86287 44.8387 11.1831V15.3286L50 14.5383V11.1831Z" fill="#CB319C"/>
<path d="M31.0693 0.000366211L24.6689 2.40105L19.6208 5.16169H30.2427L40.437 0.11814C39.908 0.0409912 39.3673 0.000366211 38.8172 0.000366211H31.0693Z" fill="#8A3293"/>
<path d="M25.0538 39.5703C26.8428 39.5703 28.5573 39.2468 30.1431 38.6563L21.7607 34.8513L12.8758 33.0332C15.4988 36.9705 19.978 39.5703 25.0538 39.5703Z" fill="#FF5D4A"/>
<path d="M32.1822 29.7564C30.6344 32.0429 28.0166 33.5488 25.0537 33.5488C21.1293 33.5488 17.8126 30.9062 16.7837 27.3076L14.476 25.8654L10.4955 26.3076C10.7248 28.7775 11.5687 31.0715 12.8756 33.0331L30.1428 38.6563C33.8754 37.2662 36.8897 34.3923 38.4704 30.7565L35.3761 29.1891L32.1822 29.7564Z" fill="#E45261"/>
<path d="M16.4517 24.9465C16.4517 22.8146 17.2329 20.8628 18.5221 19.3583L14.8524 18.845L11.1251 20.491C10.6744 21.8963 10.4302 23.3933 10.4302 24.9464C10.4302 25.4056 10.4539 25.859 10.4955 26.3074L16.7837 27.3074C16.569 26.5568 16.4517 25.7654 16.4517 24.9465Z" fill="#FF4D95"/>
<path d="M39.6775 24.9465C39.6775 21.8148 38.6874 18.9101 37.0047 16.5282L33.3605 16.011L29.6168 17.6595C32.0406 19.1828 33.656 21.8788 33.656 24.9466C33.656 26.727 33.1122 28.3827 32.1823 29.7564L38.4706 30.7564C39.2453 28.9745 39.6775 27.0104 39.6775 24.9465Z" fill="#FF4D95"/>
<path d="M25.0538 16.3445C26.7293 16.3445 28.2931 16.8277 29.6168 17.6595L37.0047 16.5283C34.3546 12.7773 29.9856 10.323 25.0538 10.323C18.5433 10.323 13.0139 14.5998 11.1251 20.4911L18.522 19.3583C20.1008 17.5156 22.4424 16.3445 25.0538 16.3445Z" fill="#CB319C"/>
<path d="M38.8172 14.6241C40.7144 14.6241 42.258 13.0805 42.258 11.1833C42.258 9.28599 40.7144 7.74243 38.8172 7.74243C36.9199 7.74243 35.3763 9.28599 35.3763 11.1833C35.3763 13.0805 36.9199 14.6241 38.8172 14.6241Z" fill="#CB319C"/>
<path d="M5.26881 30.556L2.78434 29.3168L0.107483 28.8752V33.096L5.26881 35.409V30.556Z" fill="#FF5D4A"/>
<path d="M0.107483 24.6557V28.8752L5.26881 30.556V25.4764L2.58707 24.5123L0.107483 24.6557Z" fill="#E45261"/>
<path d="M5.26881 21.3878L2.61666 21.3639L0.107483 22.1782V24.6557L5.26881 25.4764V21.3878Z" fill="#FF4D95"/>
<path d="M5.26881 17.5171L2.53502 17.7943L0.107483 20.0706V22.1781L5.26881 21.3878V17.5171Z" fill="#CB319C"/>
<path d="M0.107483 20.0706L5.26881 17.5171V11.6318L2.24157 11.9213L0.107483 13.9587V20.0706Z" fill="#8A3293"/>
<path d="M20.0897 0.000366211L8.31305 4.52976L0.242639 9.44568C0.153967 10.0121 0.107483 10.5924 0.107483 11.1832V13.9587L5.26881 11.6319V11.1832C5.26881 7.86296 7.97008 5.16169 11.2903 5.16169H19.6208L31.0693 0.000366211H20.0897Z" fill="#523494"/>
<path d="M11.2903 0.000366211C5.71504 0.000366211 1.07988 4.10164 0.242676 9.44568L20.0897 0.000366211H11.2903Z" fill="#2D2D87"/>
<path d="M25.0538 9.78528C16.6938 9.78528 9.89246 16.5865 9.89246 24.9466C9.89246 27.6119 10.5939 30.2335 11.9213 32.5279C12.1443 32.9133 12.6377 33.0449 13.0232 32.8222C13.4087 32.5991 13.5405 32.1059 13.3176 31.7202C12.1321 29.671 11.5054 27.3287 11.5054 24.9466C11.5054 17.476 17.5832 11.3983 25.0538 11.3983C32.5244 11.3983 38.6022 17.476 38.6022 24.9466C38.6022 32.4172 32.5244 38.4949 25.0538 38.4949C21.2949 38.4949 17.8008 36.9913 15.2151 34.2611C14.9089 33.9377 14.3984 33.9238 14.075 34.2301C13.7516 34.5364 13.7377 35.0468 14.044 35.3702C16.9375 38.4253 20.8474 40.1078 25.0538 40.1078C33.4137 40.1078 40.2151 33.3066 40.2151 24.9465C40.2151 16.5865 33.4137 9.78528 25.0538 9.78528Z" fill="black"/>
<path d="M25.0538 34.7316C30.4493 34.7316 34.8387 30.3421 34.8387 24.9466C34.8387 19.5511 30.4492 15.1617 25.0538 15.1617C19.6583 15.1617 15.2688 19.5512 15.2688 24.9466C15.2688 30.342 19.6583 34.7316 25.0538 34.7316ZM25.0538 16.7746C29.5599 16.7746 33.2258 20.4405 33.2258 24.9467C33.2258 29.4528 29.5599 33.1188 25.0538 33.1188C20.5476 33.1188 16.8817 29.4528 16.8817 24.9467C16.8817 20.4405 20.5476 16.7746 25.0538 16.7746Z" fill="black"/>
<path d="M38.8172 7.63477C36.8607 7.63477 35.2689 9.22656 35.2689 11.1831C35.2689 13.1397 36.8607 14.7315 38.8172 14.7315C40.7737 14.7315 42.3655 13.1397 42.3655 11.1831C42.3655 9.22656 40.7737 7.63477 38.8172 7.63477ZM38.8172 13.1187C37.75 13.1187 36.8817 12.2504 36.8817 11.1832C36.8817 10.116 37.75 9.24776 38.8172 9.24776C39.8844 9.24776 40.7526 10.116 40.7526 11.1832C40.7526 12.2504 39.8844 13.1187 38.8172 13.1187Z" fill="black"/>
<path d="M50 11.1294C50 4.98308 45.0173 0.000366211 38.871 0.000366211H11.129C4.98271 0.000366211 0 4.98308 0 11.1294V38.8713C0 45.0177 4.98271 50.0004 11.129 50.0004H38.8709C45.0173 50.0004 50 45.0177 50 38.8714V11.1294ZM48.3871 38.8714C48.3871 44.1269 44.1266 48.3875 38.871 48.3875H11.129C5.87344 48.3875 1.61289 44.1269 1.61289 38.8714V11.1294C1.61289 5.8738 5.87344 1.61326 11.129 1.61326H38.8709C44.1265 1.61326 48.387 5.8738 48.387 11.1294V38.8714H48.3871Z" fill="black"/>
<path d="M46.2365 11.4521C46.2365 7.2061 42.7943 3.76392 38.5483 3.76392H11.4516C7.20562 3.76392 3.76343 7.2061 3.76343 11.4521V38.5489C3.76343 42.7949 7.20562 46.2371 11.4516 46.2371H38.5484C42.7944 46.2371 46.2366 42.7949 46.2366 38.5489V11.4521H46.2365ZM44.6236 38.5489C44.6236 41.9042 41.9036 44.6242 38.5483 44.6242H11.4516C8.09634 44.6242 5.37632 41.9042 5.37632 38.5489V11.4521C5.37632 8.09683 8.09634 5.37681 11.4516 5.37681H38.5484C41.9037 5.37681 44.6237 8.09683 44.6237 11.4521V38.5489H44.6236Z" fill="black"/>
</g>
<g clip-path="url(#clip1)">
<path d="M138.034 40.2019C137.687 40.2666 137.535 40.4298 137.578 40.69C137.622 40.9503 137.817 41.0373 138.164 40.9503C138.512 40.8636 138.663 40.7114 138.62 40.4946C138.577 40.256 138.381 40.1582 138.034 40.2019Z" fill="black"/>
<path d="M136.179 40.4625C135.831 40.4625 135.658 40.5812 135.658 40.8204C135.658 41.1024 135.842 41.2215 136.211 41.1782C136.558 41.1782 136.732 41.0588 136.732 40.8204C136.732 40.5386 136.548 40.4188 136.179 40.4625Z" fill="black"/>
<path d="M133.64 40.3641C133.553 40.6029 133.694 40.7653 134.063 40.8525C134.388 40.9822 134.594 40.9173 134.681 40.6571C134.746 40.4187 134.605 40.2455 134.258 40.1363C133.932 40.0498 133.726 40.1247 133.64 40.3641Z" fill="black"/>
<path d="M167.249 2.7504C165.415 0.916914 163.208 0 160.625 0H129.375C126.793 0 124.584 0.916914 122.75 2.7504C120.917 4.58423 120 6.7926 120 9.37494V40.6253C120 43.2077 120.917 45.4159 122.75 47.2493C124.584 49.0832 126.793 50.0001 129.375 50.0001H136.667C137.144 50.0001 137.502 49.9837 137.741 49.9517C137.979 49.9189 138.218 49.7778 138.457 49.5279C138.695 49.2786 138.815 48.915 138.815 48.4377C138.815 48.373 138.809 47.6344 138.798 46.2239C138.787 44.8129 138.782 43.6955 138.782 42.8707L138.033 43.001C137.556 43.0877 136.953 43.1259 136.226 43.1149C135.5 43.104 134.745 43.0283 133.964 42.8871C133.182 42.7458 132.456 42.4204 131.783 41.9109C131.11 41.4005 130.633 40.7333 130.351 39.9089L130.025 39.1597C129.808 38.6611 129.467 38.1075 129 37.5003C128.533 36.8924 128.061 36.48 127.584 36.263L127.356 36.1002C127.204 35.9918 127.063 35.861 126.933 35.7093C126.803 35.557 126.705 35.4049 126.64 35.2535C126.575 35.1013 126.629 34.9765 126.803 34.8785C126.977 34.781 127.291 34.7327 127.747 34.7327L128.398 34.8302C128.832 34.9168 129.369 35.177 130.009 35.6113C130.649 36.0453 131.176 36.6094 131.588 37.3036C132.087 38.1936 132.689 38.8714 133.395 39.338C134.1 39.8051 134.811 40.0384 135.527 40.0384C136.243 40.0384 136.861 39.9842 137.382 39.8761C137.903 39.7673 138.391 39.6041 138.847 39.3872C139.042 37.9334 139.574 36.8151 140.442 36.034C139.205 35.9036 138.093 35.7086 137.105 35.4479C136.118 35.1873 135.098 34.7644 134.045 34.1782C132.993 33.5922 132.119 32.8657 131.425 31.9971C130.73 31.1286 130.161 29.9893 129.716 28.5792C129.271 27.1682 129.049 25.5404 129.049 23.696C129.049 21.0703 129.906 18.8347 131.621 16.9903C130.818 15.0155 130.893 12.8022 131.848 10.3498C132.478 10.1543 133.411 10.301 134.648 10.7893C135.885 11.278 136.791 11.6958 137.366 12.0426C137.941 12.3894 138.402 12.6826 138.75 12.9216C140.768 12.3574 142.851 12.0753 145 12.0753C147.148 12.0753 149.231 12.3574 151.25 12.9216L152.487 12.1404C153.334 11.6193 154.332 11.142 155.482 10.7081C156.632 10.2742 157.511 10.1547 158.119 10.3501C159.095 12.8026 159.183 15.0159 158.379 16.9905C160.093 18.8352 160.951 21.0707 160.951 23.6963C160.951 25.5411 160.729 27.1744 160.284 28.5955C159.839 30.0169 159.265 31.1566 158.559 32.0138C157.854 32.8711 156.975 33.5921 155.922 34.1785C154.87 34.7642 153.85 35.1879 152.862 35.4477C151.875 35.7083 150.763 35.9042 149.526 36.0345C150.653 37.0107 151.218 38.5511 151.218 40.6565V48.4367C151.218 48.8058 151.271 49.1039 151.38 49.3318C151.489 49.5596 151.662 49.7165 151.901 49.804C152.141 49.8906 152.351 49.9448 152.536 49.9663C152.721 49.9881 152.986 49.9991 153.334 49.9991H160.625C163.208 49.9991 165.416 49.0821 167.249 47.2483C169.083 45.4145 170 43.206 170 40.6238V9.37494C170 6.7926 169.083 4.58389 167.249 2.7504Z" fill="black"/>
<path d="M129.896 36.3933C129.744 36.5014 129.766 36.675 129.961 36.9138C130.178 37.1306 130.352 37.1633 130.482 37.0112C130.634 36.9031 130.612 36.7295 130.416 36.4903C130.2 36.2953 130.026 36.2626 129.896 36.3933Z" fill="black"/>
<path d="M128.822 35.5794C128.757 35.7316 128.833 35.8619 129.05 35.97C129.223 36.0788 129.365 36.0574 129.473 35.9052C129.538 35.753 129.462 35.6227 129.245 35.5138C129.028 35.4486 128.887 35.4705 128.822 35.5794Z" fill="black"/>
<path d="M130.905 37.6629C130.71 37.771 130.71 37.9669 130.905 38.2486C131.1 38.5312 131.285 38.6069 131.458 38.4764C131.654 38.3243 131.654 38.1182 131.458 37.8577C131.285 37.5763 131.1 37.5104 130.905 37.6629Z" fill="black"/>
<path d="M132.045 39.1272C131.849 39.3012 131.892 39.5066 132.175 39.7461C132.435 40.006 132.652 40.0387 132.826 39.8429C133 39.6697 132.956 39.4637 132.696 39.225C132.435 38.965 132.218 38.9322 132.045 39.1272Z" fill="black"/>
</g>
<defs>
<clipPath id="clip0">
<rect width="50" height="50" fill="white" transform="translate(0 0.000366211)"/>
</clipPath>
<clipPath id="clip1">
<rect width="50" height="50" fill="white" transform="translate(120)"/>
</clipPath>
</defs>
</svg>
